
        <svg xmlns="http://www.w3.org/2000/svg" xmlns:xlink="http://www.w3.org/1999/xlink" version="1.1" width="3187.5" 
        height="1147.68434588937" viewBox="0 0 3187.5 1147.68434588937">
			
			<g transform="scale(9.374999999999998) translate(10, 10)">
				<defs id="SvgjsDefs1914"></defs><g id="SvgjsG1915" featureKey="nameFeature-0" transform="matrix(1.6144493910264062,0,0,1.6144493910264062,-4.197567492873304,-17.43605219135805)" fill="#ff677e"><path d="M14.44 19.2 c5.6 0 9.96 4.52 9.96 10.68 c0 6.12 -4.36 10.68 -9.96 10.68 c-2.88 0 -5.08 -1.2 -6.56 -3.04 l0 2.48 l-5.28 0 l0 -29.2 l5.28 0 l0 11.4 c1.48 -1.84 3.68 -3 6.56 -3 z M13.52 35.84 c3.32 0 5.68 -2.48 5.68 -6 c0 -3.48 -2.36 -5.92 -5.68 -5.92 c-3.2 0 -5.76 2.44 -5.76 5.92 c0 3.52 2.56 6 5.76 6 z M25.610000000000003 40 l0 -29.2 l5.28 0 l0 29.2 l-5.28 0 z M42.900000000000006 40.56 c-6.24 0 -10.84 -4.64 -10.84 -10.68 c0 -6.08 4.6 -10.68 10.84 -10.68 s10.8 4.6 10.8 10.68 c0 6.04 -4.56 10.68 -10.8 10.68 z M42.900000000000006 35.76 c3.36 0 5.68 -2.52 5.68 -5.88 s-2.32 -5.88 -5.68 -5.88 c-3.4 0 -5.68 2.52 -5.68 5.88 s2.28 5.88 5.68 5.88 z M70.07000000000001 19.76 l5.28 0 l0 19.52 c0 5.64 -4.12 9.68 -10.44 9.68 c-4.96 0 -8.08 -2.28 -9.76 -5.32 l4.6 -1.64 c1.04 1.64 2.72 2.6 5.28 2.6 c3.32 0 5 -2.32 5.04 -5.32 l0 -2.44 c-1.52 1.88 -3.72 2.92 -6.4 2.92 c-5.8 0 -10 -4.52 -10 -10.28 c0 -6.08 4.2 -10.28 10 -10.28 c2.68 0 4.88 1.04 6.4 2.92 l0 -2.36 z M64.59 35 c3.24 0 5.6 -2.24 5.6 -5.52 c0 -3.24 -2.36 -5.52 -5.6 -5.52 c-3.36 0 -5.68 2.24 -5.68 5.52 s2.32 5.52 5.68 5.52 z M83.03999999999999 22.76 c1.2 -2.36 3.52 -3.72 6.68 -3.28 l0 4.96 c-4.32 -0.68 -6.68 1.32 -6.68 6.76 l0 8.8 l-5.28 0 l0 -20.24 l5.28 0 l0 3 z M102.17 19.2 c5.28 0 7.96 3.56 7.96 8.96 l0 11.84 l-5.28 0 l0 -10.84 c0 -3.08 -1.4 -5.04 -4.32 -5.04 c-2.96 0 -4.88 2.32 -4.88 5.88 l0 10 l-5.28 0 l0 -29.2 l5.28 0 l0 11.52 c1.4 -1.8 3.6 -3.12 6.52 -3.12 z M127.34 19.76 l5.64 0 l-12.16 28.64 l-5.44 0 l3.68 -8.84 l-9.16 -19.8 l5.8 0 l6 13.68 z M144.51 35.08 l1.28 4.28 c-1.6 0.64 -3.04 0.96 -4.72 0.96 c-4.64 0 -6.76 -2.88 -6.76 -7.24 l0 -8.68 l-3.4 0 l0 -4.64 l3.4 0 l0 -6.56 l5.32 0 l0 6.56 l5.92 0 l0 4.64 l-5.92 0 l0 8.68 c0 1.64 0.8 2.56 2.48 2.56 c0.92 0 1.6 -0.16 2.4 -0.56 z M158.44 19.2 c5.28 0 7.96 3.56 7.96 8.96 l0 11.84 l-5.28 0 l0 -10.84 c0 -3.08 -1.4 -5.04 -4.32 -5.04 c-2.96 0 -4.88 2.32 -4.88 5.88 l0 10 l-5.28 0 l0 -29.2 l5.28 0 l0 11.52 c1.4 -1.8 3.6 -3.12 6.52 -3.12 z M192.81 19.2 c4.84 0 8 3.12 8 8.76 l0 12.04 l-5.28 0 l0 -10.92 c0 -3.04 -1.12 -4.96 -3.88 -4.96 c-2.84 0 -4.28 2.12 -4.28 5.56 l0 10.32 l-5.32 0 l0 -10.92 c0 -3 -1.08 -4.96 -3.8 -4.96 c-2.84 0 -4.36 2.16 -4.36 5.72 l0 10.16 l-5.28 0 l0 -20.24 l5.28 0 l0 2.4 c1.32 -1.72 3.32 -2.96 6 -2.96 c2.84 0 4.84 1.12 6.08 3.04 c1.32 -1.68 3.6 -3.04 6.84 -3.04 z"></path></g><g id="SvgjsG1916" featureKey="sloganFeature-0" transform="matrix(0.822242038592154,0,0,0.822242038592154,39.87957894260986,77.27058232002713)" fill="#524a4c"><path d="M1.4551 16.3867 q-0.05859375 0.15625 -0.1416015625 0.3515625 t-0.19043 0.41016 q-0.087890625 0.166015625 -0.1806640625 0.2587890625 t-0.24902 0.092773 t-0.25391 -0.10254 t-0.097656 -0.23926 q0 -0.048828125 0.009765625 -0.0830078125 t0.048828 -0.1123 q0.25390625 -0.48828125 0.3759765625 -0.8544921875 t0.2002 -0.7666 q-0.068359375 -0.224609375 -0.09765625 -0.380859375 t-0.029297 -0.32227 q0 -0.322265625 0.13671875 -0.5224609375 t0.37109 -0.2002 t0.36621 0.19531 t0.13184 0.47852 q0 0.15625 -0.029296875 0.3125 l-0.078125 0.39063 q0.224609375 0.556640625 0.44921875 0.986328125 t0.40039 0.78613 t0.28809 0.66895 t0.1123 0.625 q0 0.41015625 -0.166015625 0.78125 t-0.54688 0.625 q0.048828125 0.009765625 0.09765625 0.009765625 l0.097656 0 q0.556640625 0 1.025390625 -0.25390625 t0.84473 -0.65918 t0.66895 -0.89844 t0.50781 -0.98145 q0.09765625 -0.224609375 0.2685546875 -0.224609375 t0.26367 0.11719 t0.092773 0.25391 q0 0.078125 -0.029296875 0.146484375 q-0.107421875 0.263671875 -0.2783203125 0.6005859375 t-0.41016 0.69336 t-0.55176 0.69824 t-0.69824 0.61035 t-0.84473 0.42969 t-1.0059 0.16113 q-0.654296875 0 -1.215820313 -0.2294921875 t-0.91309 -0.75684 q-0.05859375 -0.087890625 -0.05859375 -0.185546875 q0 -0.146484375 0.1123046875 -0.2587890625 t0.26367 -0.1123 t0.25879 0.10742 q0.009765625 0.01953125 0.068359375 0.05859375 l0.14648 0.097656 q0.078125 0.05859375 0.1904296875 0.09765625 t0.22949 0.039063 q0.234375 0 0.3955078125 -0.09765625 t0.25879 -0.23926 t0.1416 -0.30273 t0.043945 -0.27832 q0 -0.244140625 -0.078125 -0.48828125 t-0.2002 -0.48828 t-0.26367 -0.50293 t-0.25879 -0.54199 z M9.082025 20.13672 q0.341796875 -0.341796875 0.693359375 -0.6982421875 t0.68359 -0.74707 t0.62012 -0.81543 t0.5127 -0.90332 q0.048828125 -0.107421875 0.13671875 -0.1611328125 t0.19531 -0.053711 q0.166015625 0 0.2685546875 0.1171875 t0.10254 0.26367 q0 0.078125 -0.029296875 0.146484375 q-0.302734375 0.634765625 -0.693359375 1.162109375 t-0.82031 1.001 t-0.86914 0.91797 t-0.83984 0.89355 q-0.0390625 0.673828125 0 1.352539063 t0.039063 1.4404 q0 0.625 -0.0390625 1.25 t-0.12695 1.1963 t-0.23926 1.0693 t-0.38574 0.86426 t-0.54688 0.57617 t-0.73242 0.20996 q-0.693359375 0 -1.064453125 -0.478515625 t-0.37109 -1.3379 q0 -0.46875 0.1025390625 -1.005859375 t0.28809 -1.1084 t0.44434 -1.1572 t0.56152 -1.1426 t0.64453 -1.0596 t0.69336 -0.91309 l0.048828 -0.97656 q0.01953125 -0.498046875 0.048828125 -0.927734375 q-0.25390625 0.44921875 -0.6298828125 0.72265625 t-0.8252 0.27344 q-0.7421875 0 -1.162109375 -0.498046875 t-0.41992 -1.3672 q0 -0.634765625 0.1220703125 -1.157226563 t0.26367 -0.89844 t0.25879 -0.57617 t0.11719 -0.19043 q0.107421875 -0.166015625 0.302734375 -0.166015625 q0.166015625 0 0.2685546875 0.1123046875 t0.10254 0.25879 q0 0.107421875 -0.05859375 0.1953125 q0.009765625 -0.009765625 -0.0927734375 0.1611328125 t-0.22461 0.49316 t-0.22461 0.77148 t-0.10254 0.98633 t0.19531 0.83984 t0.63477 0.30273 q0.556640625 0 1.005859375 -0.8251953125 t0.76172 -2.3975 q0.01953125 -0.126953125 0.1171875 -0.2099609375 t0.24414 -0.083008 t0.25391 0.10742 t0.10742 0.26367 q0 0.029296875 -0.0390625 0.3466796875 t-0.092773 0.84473 t-0.1123 1.2256 t-0.097656 1.4893 z M8.300825 22.207 q-0.439453125 0.634765625 -0.8056640625 1.337890625 t-0.62988 1.3965 t-0.41016 1.3281 t-0.14648 1.1377 t0.16602 0.79102 t0.52734 0.28809 q0.322265625 0 0.5712890625 -0.3173828125 t0.41992 -0.90332 t0.25879 -1.4209 t0.087891 -1.8701 q0 -0.419921875 -0.0146484375 -0.849609375 t-0.024414 -0.91797 z M13.759803125 19.12109 q0.15625 -0.322265625 0.361328125 -0.7080078125 t0.43945 -0.78125 t0.49316 -0.78613 t0.54199 -0.7373 t0.57129 -0.49805 t0.54199 -0.15137 q0.5078125 0 0.751953125 0.37109375 t0.24414 0.91797 q0 0.126953125 -0.009765625 0.302734375 l-0.058594 0.80078 q-0.01953125 0.21484375 -0.01953125 0.400390625 q0 0.234375 0.0244140625 0.44921875 t0.092773 0.37598 t0.19531 0.25391 t0.33203 0.092773 q0.37109375 0 0.72265625 -0.2880859375 t0.64941 -0.68359 t0.51758 -0.80566 t0.32715 -0.66406 q0.048828125 -0.107421875 0.1416015625 -0.166015625 t0.2002 -0.058594 q0.166015625 0 0.2685546875 0.1220703125 t0.10254 0.25879 q0 0.068359375 -0.029296875 0.13671875 l-0.15625 0.32227 q-0.1171875 0.244140625 -0.3076171875 0.5615234375 t-0.44434 0.67383 t-0.56152 0.64941 t-0.66406 0.48828 t-0.74707 0.19531 q-0.439453125 0 -0.712890625 -0.1708984375 t-0.42969 -0.44922 t-0.20996 -0.61523 t-0.053711 -0.67871 q0 -0.146484375 0.0146484375 -0.33203125 t0.039063 -0.39063 t0.039063 -0.41016 t0.014648 -0.39063 q0 -0.3125 -0.09765625 -0.4248046875 t-0.17578 -0.1123 q-0.15625 0 -0.3564453125 0.1806640625 t-0.41992 0.47363 t-0.44922 0.65918 t-0.42969 0.72754 t-0.37109 0.68848 t-0.26855 0.54199 q-0.1953125 0.41015625 -0.390625 0.5517578125 t-0.40039 0.1416 q-0.283203125 0 -0.4541015625 -0.1708984375 t-0.1709 -0.4834 q0 -0.068359375 0.01953125 -0.2734375 l0.16602 -1.7188 q0.029296875 -0.3125 0.048828125 -0.5859375 t0.019531 -0.45898 q0 -0.244140625 -0.01953125 -0.46875 t-0.078125 -0.27344 q-0.087890625 0.029296875 -0.3125 0.3662109375 t-0.57617 1.1865 q-0.048828125 0.107421875 -0.146484375 0.166015625 t-0.20508 0.058594 q-0.166015625 0 -0.263671875 -0.1123046875 t-0.097656 -0.25879 q0 -0.068359375 0.029296875 -0.146484375 q0.439453125 -1.044921875 0.8251953125 -1.538085938 t0.7666 -0.49316 q0.224609375 0 0.380859375 0.1123046875 t0.24902 0.29785 t0.13672 0.41016 t0.043945 0.45898 q0 0.17578125 -0.0244140625 0.546875 t-0.063477 0.79102 l-0.068359 0.84961 q-0.0390625 0.419921875 -0.068359375 0.703125 z M26.8749875 17.2949 q-0.05859375 0.107421875 -0.2001953125 0.390625 t-0.38086 0.63965 t-0.57129 0.7373 t-0.76172 0.69824 t-0.96191 0.52246 t-1.1572 0.20508 q-0.556640625 0 -0.986328125 -0.2001953125 t-0.73242 -0.56641 t-0.45898 -0.86426 t-0.15625 -1.0938 t0.16602 -1.1084 t0.4541 -0.89355 t0.66895 -0.60059 t0.81055 -0.21973 q0.322265625 0 0.5859375 0.1123046875 t0.44434 0.29785 t0.2832 0.41016 t0.10254 0.44434 t-0.053711 0.40527 t-0.13672 0.32715 t-0.19043 0.22461 t-0.21484 0.083008 q-0.166015625 0 -0.2685546875 -0.107421875 t-0.10254 -0.26367 q0 -0.078125 0.0390625 -0.13671875 l0.078125 -0.12695 q0.0390625 -0.05859375 0.0732421875 -0.1513671875 t0.03418 -0.23926 q0 -0.205078125 -0.1904296875 -0.37109375 t-0.47363 -0.16602 t-0.53223 0.16602 t-0.43457 0.44434 t-0.29785 0.6543 t-0.1123 0.78613 t0.097656 0.77148 t0.29297 0.63965 t0.49316 0.44434 t0.70801 0.16602 q0.52734375 0 0.9765625 -0.1904296875 t0.82031 -0.4834 t0.6543 -0.63965 t0.4834 -0.6543 t0.3125 -0.53711 t0.13184 -0.28809 q0.0390625 -0.09765625 0.1318359375 -0.1513671875 t0.2002 -0.053711 q0.166015625 0 0.2685546875 0.1171875 t0.10254 0.26367 q0 0.05859375 -0.0390625 0.15625 z M26.98244375 19.16992 q0.15625 -0.33203125 0.361328125 -0.7177734375 t0.43945 -0.79102 t0.49805 -0.80566 t0.54688 -0.74707 t0.57129 -0.49805 t0.54199 -0.15137 t0.44434 0.10254 t0.3125 0.27832 t0.18555 0.41016 t0.063477 0.50781 q0 0.224609375 -0.0439453125 0.6005859375 t-0.043945 0.78613 q0 0.234375 0.0244140625 0.4638671875 t0.087891 0.41016 t0.19043 0.29297 t0.33203 0.1123 q0.234375 0 0.46875 -0.1318359375 t0.45898 -0.35156 t0.42969 -0.48828 t0.37109 -0.53711 t0.29297 -0.51758 t0.20508 -0.41504 q0.09765625 -0.224609375 0.341796875 -0.224609375 q0.166015625 0 0.263671875 0.1171875 t0.097656 0.25391 q0 0.078125 -0.029296875 0.146484375 l-0.14648 0.32227 q-0.1171875 0.244140625 -0.3076171875 0.56640625 t-0.44434 0.67383 t-0.56152 0.64941 t-0.66406 0.48828 t-0.74707 0.19043 q-0.44921875 0 -0.72265625 -0.1904296875 t-0.4248 -0.4834 t-0.20508 -0.6543 t-0.053711 -0.70313 q0 -0.17578125 0.01953125 -0.380859375 l0.068359 -0.76172 q0.009765625 -0.166015625 0.009765625 -0.283203125 q0 -0.302734375 -0.0830078125 -0.41015625 t-0.19043 -0.10742 q-0.15625 0 -0.3564453125 0.1806640625 t-0.41992 0.47363 t-0.43945 0.65918 t-0.4248 0.72754 t-0.37109 0.68359 l-0.27344 0.54688 q-0.205078125 0.41015625 -0.4150390625 0.5517578125 t-0.37598 0.1416 q-0.302734375 0 -0.4638671875 -0.2392578125 t-0.16113 -0.58105 l0.0097656 -4.1406 q0 -1.669921875 0.0439453125 -3.110351563 t0.14648 -2.6074 t0.30762 -1.9922 t0.52246 -1.2744 t0.7959 -0.44922 q0.41015625 0 0.693359375 0.224609375 t0.45898 0.61035 t0.25391 0.89844 t0.078125 1.0791 q0 1.15234375 -0.2099609375 2.260742188 t-0.56152 2.1631 t-0.82031 2.0557 t-0.98633 1.9482 l0 1.709 z M26.98244375 15.5664 q0.41015625 -0.8984375 0.7470703125 -1.752929688 t0.57617 -1.7041 t0.37598 -1.7236 t0.13672 -1.8213 q0 -0.15625 -0.0146484375 -0.498046875 t-0.087891 -0.69336 t-0.22461 -0.61523 t-0.4248 -0.26367 q-0.21484375 0 -0.37109375 0.2880859375 t-0.27344 0.78125 t-0.19531 1.1475 t-0.12695 1.3867 t-0.073242 1.5039 t-0.03418 1.499 t-0.0097656 1.3623 l0 1.1035 z M34.746109375 15.9863 q-0.0390625 0.263671875 -0.09765625 0.4931640625 t-0.1123 0.40039 t-0.092773 0.27832 t-0.048828 0.11719 q-0.09765625 0.224609375 -0.341796875 0.224609375 q-0.13671875 0 -0.25390625 -0.1025390625 t-0.11719 -0.25879 q0 -0.05859375 0.01953125 -0.087890625 t0.058594 -0.11719 t0.097656 -0.29297 t0.14648 -0.63477 q-0.166015625 0 -0.341796875 -0.009765625 t-0.32715 -0.068359 t-0.24902 -0.18555 t-0.097656 -0.35156 q0 -0.166015625 0.0927734375 -0.44921875 t0.24902 -0.55664 t0.35156 -0.47363 t0.39063 -0.2002 q0.224609375 0 0.3662109375 0.166015625 t0.21973 0.40527 t0.1123 0.50293 t0.03418 0.45898 l0.63477 -0.0097656 q0.556640625 0 0.849609375 0.244140625 t0.29297 0.80078 q0 0.224609375 -0.029296875 0.46875 t-0.068359 0.50293 t-0.068359 0.5127 t-0.029297 0.49805 q0 0.3515625 0.09765625 0.5810546875 t0.24414 0.36621 t0.3125 0.19043 t0.30273 0.053711 q0.419921875 0 0.791015625 -0.2734375 t0.68359 -0.65918 t0.56152 -0.81543 t0.41504 -0.75195 q0.048828125 -0.087890625 0.13671875 -0.13671875 t0.18555 -0.048828 q0.17578125 0 0.2734375 0.1123046875 t0.097656 0.24902 q0 0.09765625 -0.0390625 0.17578125 q-0.224609375 0.400390625 -0.5224609375 0.9033203125 t-0.67871 0.94238 t-0.85449 0.74219 t-1.04 0.30273 q-0.3515625 0 -0.6640625 -0.1318359375 t-0.54199 -0.38086 t-0.36621 -0.61523 t-0.13672 -0.8252 q0 -0.48828125 0.09765625 -0.9716796875 t0.097656 -0.92285 q0 -0.185546875 -0.0830078125 -0.2783203125 t-0.36621 -0.092773 l-0.29297 0 z M34.091799375 15.2637 q0 -0.068359375 -0.0048828125 -0.1806640625 t-0.019531 -0.21973 t-0.039063 -0.18555 t-0.053711 -0.078125 t-0.073242 0.073242 t-0.092773 0.17578 t-0.087891 0.21973 t-0.058594 0.19531 l0.42969 0 z M44.2870625 18.9258 q-0.244140625 0 -0.4296875 -0.0390625 q-0.146484375 0.29296875 -0.3515625 0.5419921875 t-0.47363 0.43457 t-0.60059 0.29297 t-0.72266 0.10742 q-0.458984375 0 -0.83984375 -0.1611328125 t-0.66406 -0.44922 t-0.43945 -0.69336 t-0.15625 -0.89355 q0 -0.625 0.224609375 -1.088867188 t0.51758 -0.77148 t0.58594 -0.45898 t0.44922 -0.15137 t0.23926 0.087891 t0.083008 0.24414 t-0.10254 0.23926 t-0.25879 0.16113 t-0.33203 0.21973 t-0.32715 0.35645 t-0.24902 0.50781 t-0.097656 0.6543 q0 0.322265625 0.09765625 0.6005859375 t0.2832 0.47852 t0.43945 0.3125 t0.56641 0.1123 q0.556640625 0 0.9228515625 -0.2587890625 t0.56152 -0.65918 q-0.576171875 -0.302734375 -0.947265625 -0.859375 t-0.37109 -1.25 q0 -0.556640625 0.2685546875 -0.908203125 t0.70801 -0.35156 q0.263671875 0 0.498046875 0.126953125 t0.41504 0.40039 t0.28809 0.70313 t0.10742 1.0254 q0 0.3125 -0.078125 0.654296875 q0.05859375 0.009765625 0.1171875 0.009765625 l0.12695 0 q0.33203125 0 0.595703125 -0.078125 t0.47852 -0.23438 t0.38574 -0.40039 t0.32715 -0.56641 q0.029296875 -0.05859375 0.126953125 -0.1123046875 t0.19531 -0.053711 q0.126953125 0 0.2392578125 0.1025390625 t0.1123 0.26855 q0 0.078125 -0.0390625 0.1708984375 t-0.078125 0.1709 q-0.166015625 0.29296875 -0.3857421875 0.5615234375 t-0.51758 0.46875 t-0.66895 0.31738 t-0.83008 0.10742 z M42.6171625 16.4648 q0 0.185546875 0.048828125 0.390625 t0.15137 0.40527 t0.25391 0.38086 t0.35645 0.30762 q0.029296875 -0.205078125 0.029296875 -0.400390625 q0 -0.263671875 -0.0390625 -0.537109375 t-0.1123 -0.50293 t-0.18066 -0.37109 t-0.25391 -0.1416 q-0.05859375 0 -0.15625 0.087890625 t-0.097656 0.38086 z M48.271521875 19.12109 q0.15625 -0.322265625 0.361328125 -0.7080078125 t0.43945 -0.78125 t0.49316 -0.78613 t0.54199 -0.7373 t0.57129 -0.49805 t0.54199 -0.15137 q0.5078125 0 0.751953125 0.37109375 t0.24414 0.91797 q0 0.126953125 -0.009765625 0.302734375 l-0.058594 0.80078 q-0.01953125 0.21484375 -0.01953125 0.400390625 q0 0.234375 0.0244140625 0.44921875 t0.092773 0.37598 t0.19531 0.25391 t0.33203 0.092773 q0.37109375 0 0.72265625 -0.2880859375 t0.64941 -0.68359 t0.51758 -0.80566 t0.32715 -0.66406 q0.048828125 -0.107421875 0.1416015625 -0.166015625 t0.2002 -0.058594 q0.166015625 0 0.2685546875 0.1220703125 t0.10254 0.25879 q0 0.068359375 -0.029296875 0.13671875 l-0.15625 0.32227 q-0.1171875 0.244140625 -0.3076171875 0.5615234375 t-0.44434 0.67383 t-0.56152 0.64941 t-0.66406 0.48828 t-0.74707 0.19531 q-0.439453125 0 -0.712890625 -0.1708984375 t-0.42969 -0.44922 t-0.20996 -0.61523 t-0.053711 -0.67871 q0 -0.146484375 0.0146484375 -0.33203125 t0.039063 -0.39063 t0.039063 -0.41016 t0.014648 -0.39063 q0 -0.3125 -0.09765625 -0.4248046875 t-0.17578 -0.1123 q-0.15625 0 -0.3564453125 0.1806640625 t-0.41992 0.47363 t-0.44922 0.65918 t-0.42969 0.72754 t-0.37109 0.68848 t-0.26855 0.54199 q-0.1953125 0.41015625 -0.390625 0.5517578125 t-0.40039 0.1416 q-0.283203125 0 -0.4541015625 -0.1708984375 t-0.1709 -0.4834 q0 -0.068359375 0.01953125 -0.2734375 l0.16602 -1.7188 q0.029296875 -0.3125 0.048828125 -0.5859375 t0.019531 -0.45898 q0 -0.244140625 -0.01953125 -0.46875 t-0.078125 -0.27344 q-0.087890625 0.029296875 -0.3125 0.3662109375 t-0.57617 1.1865 q-0.048828125 0.107421875 -0.146484375 0.166015625 t-0.20508 0.058594 q-0.166015625 0 -0.263671875 -0.1123046875 t-0.097656 -0.25879 q0 -0.068359375 0.029296875 -0.146484375 q0.439453125 -1.044921875 0.8251953125 -1.538085938 t0.7666 -0.49316 q0.224609375 0 0.380859375 0.1123046875 t0.24902 0.29785 t0.13672 0.41016 t0.043945 0.45898 q0 0.17578125 -0.0244140625 0.546875 t-0.063477 0.79102 l-0.068359 0.84961 q-0.0390625 0.419921875 -0.068359375 0.703125 z M56.59180625 12.334 q0 0.37109375 -0.2587890625 0.6298828125 t-0.62988 0.25879 t-0.62988 -0.25879 t-0.25879 -0.62988 q0 -0.185546875 0.068359375 -0.3466796875 t0.19043 -0.2832 t0.2832 -0.19043 t0.34668 -0.068359 t0.34668 0.068359 t0.2832 0.19043 t0.19043 0.2832 t0.068359 0.34668 z M55.00976625 18.0566 q0 -1.40625 0.17578125 -2.802734375 q0.01953125 -0.13671875 0.1220703125 -0.2392578125 t0.25879 -0.10254 t0.25391 0.1123 t0.097656 0.25879 q0 0.05859375 -0.01953125 0.3515625 l-0.058594 0.69336 q-0.0390625 0.41015625 -0.0634765625 0.8642578125 t-0.024414 0.83496 q0 0.517578125 0.1025390625 0.8349609375 t0.26367 0.49316 t0.3418 0.23438 t0.34668 0.058594 q0.2734375 0 0.56640625 -0.1953125 t0.60059 -0.54688 t0.62012 -0.84473 t0.61523 -1.0986 q0.048828125 -0.09765625 0.13671875 -0.1513671875 t0.19531 -0.053711 q0.15625 0 0.2587890625 0.1171875 t0.10254 0.25391 q0 0.09765625 -0.0390625 0.166015625 l-0.29297 0.54688 q-0.17578125 0.322265625 -0.400390625 0.6640625 t-0.49316 0.67871 t-0.57129 0.60547 t-0.63477 0.43457 t-0.67383 0.16602 q-0.439453125 0 -0.771484375 -0.185546875 t-0.56152 -0.49805 t-0.3418 -0.7373 t-0.1123 -0.91309 z M56.04490625 12.334 q0 -0.13671875 -0.1025390625 -0.2392578125 t-0.23926 -0.10254 t-0.23438 0.10254 t-0.097656 0.23926 t0.097656 0.23438 t0.23438 0.097656 t0.23926 -0.097656 t0.10254 -0.23438 z M63.779325 21.4453 q0.05859375 0.791015625 0.05859375 1.89453125 q0 1.181640625 -0.146484375 2.172851563 t-0.42969 1.709 t-0.70313 1.1182 t-0.9668 0.40039 q-0.2734375 0 -0.517578125 -0.126953125 t-0.4248 -0.36133 t-0.2832 -0.55664 t-0.10254 -0.72266 q0 -0.595703125 0.1416015625 -1.259765625 t0.46387 -1.3867 t0.84961 -1.5088 t1.2988 -1.6357 q-0.0390625 -0.419921875 -0.1025390625 -0.78125 t-0.16113 -0.625 t-0.22949 -0.41016 t-0.31738 -0.14648 q-0.05859375 0 -0.13671875 0.01953125 q-0.224609375 0.263671875 -0.4052734375 0.41015625 t-0.32715 0.22461 t-0.24902 0.097656 t-0.15137 0.019531 q-0.166015625 0 -0.3173828125 -0.0927734375 t-0.15137 -0.34668 q0 -0.087890625 0.0634765625 -0.224609375 t0.20996 -0.28809 t0.38574 -0.2832 t0.58105 -0.2002 q0.64453125 -0.693359375 1.005859375 -1.274414063 t0.36133 -1.0889 q0 -0.439453125 -0.2734375 -0.703125 t-0.69336 -0.26367 q-0.5859375 0 -1.171875 0.546875 t-1.0547 1.5137 q-0.107421875 0.21484375 -0.341796875 0.21484375 q-0.166015625 0 -0.263671875 -0.1171875 t-0.097656 -0.25391 q0 -0.087890625 0.0390625 -0.15625 q0.576171875 -1.181640625 1.328125 -1.8359375 t1.5723 -0.6543 q0.33203125 0 0.6396484375 0.1171875 t0.54199 0.33691 t0.37109 0.53711 t0.13672 0.72754 q0 0.341796875 -0.0927734375 0.6591796875 t-0.24902 0.61523 t-0.36133 0.57129 t-0.41992 0.52734 q0.263671875 0.1171875 0.4345703125 0.33203125 t0.2832 0.47852 t0.1709 0.54688 t0.097656 0.54688 q0.37109375 -0.400390625 0.771484375 -0.849609375 t0.77148 -0.9082 t0.67871 -0.90332 t0.4834 -0.83496 q0.048828125 -0.107421875 0.13671875 -0.1611328125 t0.19531 -0.053711 q0.166015625 0 0.2685546875 0.1123046875 t0.10254 0.24902 q0 0.078125 -0.029296875 0.146484375 q-0.21484375 0.48828125 -0.60546875 1.049804688 t-0.84961 1.123 t-0.9375 1.0791 t-0.87891 0.91797 z M63.085925 22.2266 q-0.615234375 0.751953125 -1.015625 1.416015625 t-0.63965 1.25 t-0.33691 1.0889 t-0.097656 0.92285 q0 0.498046875 0.17578125 0.80078125 t0.42969 0.30273 q0.341796875 0 0.6201171875 -0.3515625 t0.47363 -0.96191 t0.30273 -1.4404 t0.10742 -1.7871 l0 -0.57617 z M67.548859375 18.9258 q0.205078125 0.283203125 0.52734375 0.4541015625 t0.7959 0.1709 t0.86426 -0.22949 t0.71289 -0.60059 t0.57617 -0.83008 t0.45898 -0.91797 q0.048828125 -0.107421875 0.13671875 -0.1611328125 t0.19531 -0.053711 q0.166015625 0 0.2685546875 0.1171875 t0.10254 0.25391 q0 0.048828125 -0.009765625 0.0830078125 t-0.029297 0.073242 q-0.673828125 1.484375 -1.469726563 2.236328125 t-1.8018 0.77148 q-0.64453125 0 -1.11328125 -0.2490234375 t-0.77148 -0.64453 t-0.44922 -0.89355 t-0.14648 -0.99609 t0.12207 -0.91797 t0.35156 -0.73242 t0.54688 -0.48828 t0.69824 -0.17578 q0.224609375 0 0.4443359375 0.0927734375 t0.39551 0.26367 t0.2832 0.41504 t0.10742 0.55664 q0 0.400390625 -0.13671875 0.751953125 t-0.37598 0.6543 t-0.57129 0.55664 t-0.71289 0.43945 z M67.255859375 18.291 q0.302734375 -0.126953125 0.5517578125 -0.322265625 t0.4248 -0.42969 t0.27344 -0.49316 t0.097656 -0.52246 q0 -0.29296875 -0.146484375 -0.4443359375 t-0.3418 -0.15137 q-0.263671875 0 -0.44921875 0.146484375 t-0.30273 0.38086 t-0.1709 0.52246 t-0.053711 0.57129 q0 0.17578125 0.0341796875 0.37109375 t0.083008 0.37109 z M79.5117125 20.13672 q0.341796875 -0.341796875 0.693359375 -0.6982421875 t0.68359 -0.74707 t0.62012 -0.81543 t0.5127 -0.90332 q0.048828125 -0.107421875 0.13671875 -0.1611328125 t0.19531 -0.053711 q0.166015625 0 0.2685546875 0.1171875 t0.10254 0.26367 q0 0.078125 -0.029296875 0.146484375 q-0.302734375 0.634765625 -0.693359375 1.162109375 t-0.82031 1.001 t-0.86914 0.91797 t-0.83984 0.89355 q-0.0390625 0.673828125 0 1.352539063 t0.039063 1.4404 q0 0.625 -0.0390625 1.25 t-0.12695 1.1963 t-0.23926 1.0693 t-0.38574 0.86426 t-0.54688 0.57617 t-0.73242 0.20996 q-0.693359375 0 -1.064453125 -0.478515625 t-0.37109 -1.3379 q0 -0.46875 0.1025390625 -1.005859375 t0.28809 -1.1084 t0.44434 -1.1572 t0.56152 -1.1426 t0.64453 -1.0596 t0.69336 -0.91309 l0.048828 -0.97656 q0.01953125 -0.498046875 0.048828125 -0.927734375 q-0.25390625 0.44921875 -0.6298828125 0.72265625 t-0.8252 0.27344 q-0.7421875 0 -1.162109375 -0.498046875 t-0.41992 -1.3672 q0 -0.634765625 0.1220703125 -1.157226563 t0.26367 -0.89844 t0.25879 -0.57617 t0.11719 -0.19043 q0.107421875 -0.166015625 0.302734375 -0.166015625 q0.166015625 0 0.2685546875 0.1123046875 t0.10254 0.25879 q0 0.107421875 -0.05859375 0.1953125 q0.009765625 -0.009765625 -0.0927734375 0.1611328125 t-0.22461 0.49316 t-0.22461 0.77148 t-0.10254 0.98633 t0.19531 0.83984 t0.63477 0.30273 q0.556640625 0 1.005859375 -0.8251953125 t0.76172 -2.3975 q0.01953125 -0.126953125 0.1171875 -0.2099609375 t0.24414 -0.083008 t0.25391 0.10742 t0.10742 0.26367 q0 0.029296875 -0.0390625 0.3466796875 t-0.092773 0.84473 t-0.1123 1.2256 t-0.097656 1.4893 z M78.7305125 22.207 q-0.439453125 0.634765625 -0.8056640625 1.337890625 t-0.62988 1.3965 t-0.41016 1.3281 t-0.14648 1.1377 t0.16602 0.79102 t0.52734 0.28809 q0.322265625 0 0.5712890625 -0.3173828125 t0.41992 -0.90332 t0.25879 -1.4209 t0.087891 -1.8701 q0 -0.419921875 -0.0146484375 -0.849609375 t-0.024414 -0.91797 z M86.523390625 18.9258 q-0.244140625 0 -0.4296875 -0.0390625 q-0.146484375 0.29296875 -0.3515625 0.5419921875 t-0.47363 0.43457 t-0.60059 0.29297 t-0.72266 0.10742 q-0.458984375 0 -0.83984375 -0.1611328125 t-0.66406 -0.44922 t-0.43945 -0.69336 t-0.15625 -0.89355 q0 -0.625 0.224609375 -1.088867188 t0.51758 -0.77148 t0.58594 -0.45898 t0.44922 -0.15137 t0.23926 0.087891 t0.083008 0.24414 t-0.10254 0.23926 t-0.25879 0.16113 t-0.33203 0.21973 t-0.32715 0.35645 t-0.24902 0.50781 t-0.097656 0.6543 q0 0.322265625 0.09765625 0.6005859375 t0.2832 0.47852 t0.43945 0.3125 t0.56641 0.1123 q0.556640625 0 0.9228515625 -0.2587890625 t0.56152 -0.65918 q-0.576171875 -0.302734375 -0.947265625 -0.859375 t-0.37109 -1.25 q0 -0.556640625 0.2685546875 -0.908203125 t0.70801 -0.35156 q0.263671875 0 0.498046875 0.126953125 t0.41504 0.40039 t0.28809 0.70313 t0.10742 1.0254 q0 0.3125 -0.078125 0.654296875 q0.05859375 0.009765625 0.1171875 0.009765625 l0.12695 0 q0.33203125 0 0.595703125 -0.078125 t0.47852 -0.23438 t0.38574 -0.40039 t0.32715 -0.56641 q0.029296875 -0.05859375 0.126953125 -0.1123046875 t0.19531 -0.053711 q0.126953125 0 0.2392578125 0.1025390625 t0.1123 0.26855 q0 0.078125 -0.0390625 0.1708984375 t-0.078125 0.1709 q-0.166015625 0.29296875 -0.3857421875 0.5615234375 t-0.51758 0.46875 t-0.66895 0.31738 t-0.83008 0.10742 z M84.853490625 16.4648 q0 0.185546875 0.048828125 0.390625 t0.15137 0.40527 t0.25391 0.38086 t0.35645 0.30762 q0.029296875 -0.205078125 0.029296875 -0.400390625 q0 -0.263671875 -0.0390625 -0.537109375 t-0.1123 -0.50293 t-0.18066 -0.37109 t-0.25391 -0.1416 q-0.05859375 0 -0.15625 0.087890625 t-0.097656 0.38086 z M91.58205 18.9062 q-0.341796875 0.556640625 -0.7958984375 0.87890625 t-0.91309 0.32227 q-0.37109375 0 -0.6640625 -0.13671875 t-0.50781 -0.38574 t-0.32715 -0.60059 t-0.1123 -0.79102 q0 -0.68359375 0.1318359375 -1.2109375 t0.28809 -0.88379 t0.29297 -0.54199 l0.13672 -0.18555 q0.048828125 -0.05859375 0.1220703125 -0.087890625 t0.15137 -0.029297 q0.15625 0 0.2587890625 0.1123046875 t0.10254 0.25879 q0 0.05859375 -0.01953125 0.1171875 l-0.058594 0.11719 l-0.15625 0.26367 q-0.107421875 0.185546875 -0.224609375 0.478515625 t-0.20508 0.68848 t-0.087891 0.90332 q0 0.576171875 0.2294921875 0.8740234375 t0.64941 0.29785 q0.17578125 0 0.4052734375 -0.1123046875 t0.44922 -0.34668 t0.38574 -0.5957 t0.21484 -0.84961 l0.14648 -1.6797 q0.01953125 -0.146484375 0.126953125 -0.244140625 t0.26367 -0.097656 t0.25391 0.12207 t0.097656 0.27832 l-0.12695 1.6211 q-0.01953125 0.205078125 0.0146484375 0.537109375 t0.1416 0.6543 t0.32227 0.55176 t0.56641 0.22949 q0.25390625 0 0.498046875 -0.1318359375 t0.46875 -0.34668 t0.41504 -0.4834 t0.35156 -0.54199 t0.27832 -0.52734 l0.19531 -0.41992 q0.048828125 -0.107421875 0.13671875 -0.166015625 t0.19531 -0.058594 q0.17578125 0 0.2734375 0.1171875 t0.097656 0.25391 q0 0.078125 -0.029296875 0.146484375 l-0.14648 0.32227 q-0.1171875 0.25390625 -0.2978515625 0.5712890625 t-0.43457 0.66895 t-0.56641 0.64941 t-0.67871 0.48828 t-0.78613 0.19043 q-0.576171875 0 -0.95703125 -0.3271484375 t-0.56641 -0.93262 z M96.367203125 15.9863 q-0.0390625 0.263671875 -0.09765625 0.4931640625 t-0.1123 0.40039 t-0.092773 0.27832 t-0.048828 0.11719 q-0.09765625 0.224609375 -0.341796875 0.224609375 q-0.13671875 0 -0.25390625 -0.1025390625 t-0.11719 -0.25879 q0 -0.05859375 0.01953125 -0.087890625 t0.058594 -0.11719 t0.097656 -0.29297 t0.14648 -0.63477 q-0.166015625 0 -0.341796875 -0.009765625 t-0.32715 -0.068359 t-0.24902 -0.18555 t-0.097656 -0.35156 q0 -0.166015625 0.0927734375 -0.44921875 t0.24902 -0.55664 t0.35156 -0.47363 t0.39063 -0.2002 q0.224609375 0 0.3662109375 0.166015625 t0.21973 0.40527 t0.1123 0.50293 t0.03418 0.45898 l0.63477 -0.0097656 q0.556640625 0 0.849609375 0.244140625 t0.29297 0.80078 q0 0.224609375 -0.029296875 0.46875 t-0.068359 0.50293 t-0.068359 0.5127 t-0.029297 0.49805 q0 0.3515625 0.09765625 0.5810546875 t0.24414 0.36621 t0.3125 0.19043 t0.30273 0.053711 q0.419921875 0 0.791015625 -0.2734375 t0.68359 -0.65918 t0.56152 -0.81543 t0.41504 -0.75195 q0.048828125 -0.087890625 0.13671875 -0.13671875 t0.18555 -0.048828 q0.17578125 0 0.2734375 0.1123046875 t0.097656 0.24902 q0 0.09765625 -0.0390625 0.17578125 q-0.224609375 0.400390625 -0.5224609375 0.9033203125 t-0.67871 0.94238 t-0.85449 0.74219 t-1.04 0.30273 q-0.3515625 0 -0.6640625 -0.1318359375 t-0.54199 -0.38086 t-0.36621 -0.61523 t-0.13672 -0.8252 q0 -0.48828125 0.09765625 -0.9716796875 t0.097656 -0.92285 q0 -0.185546875 -0.0830078125 -0.2783203125 t-0.36621 -0.092773 l-0.29297 0 z M95.712893125 15.2637 q0 -0.068359375 -0.0048828125 -0.1806640625 t-0.019531 -0.21973 t-0.039063 -0.18555 t-0.053711 -0.078125 t-0.073242 0.073242 t-0.092773 0.17578 t-0.087891 0.21973 t-0.058594 0.19531 l0.42969 0 z M113.7109875 10.2246 q0 0.15625 -0.107421875 0.2490234375 t-0.26367 0.092773 l-4.9512 0 l0 0.10742 q0 0.595703125 -0.087890625 1.26953125 t-0.23926 1.3428 t-0.3418 1.3037 t-0.39063 1.1719 t-0.39551 0.93262 t-0.35156 0.59082 q0.126953125 0.44921875 0.302734375 0.8349609375 t0.39551 0.67383 t0.47363 0.4541 t0.54688 0.16602 q0.341796875 0 0.6787109375 -0.2880859375 t0.625 -0.68359 t0.50781 -0.80078 t0.31738 -0.64453 t0.3418 -0.23926 q0.166015625 0 0.2685546875 0.1171875 t0.10254 0.25391 q0 0.068359375 -0.029296875 0.13671875 l-0.13672 0.3125 q-0.1171875 0.244140625 -0.2978515625 0.56640625 t-0.41992 0.67871 t-0.53711 0.64941 t-0.63965 0.48828 t-0.72266 0.19531 q-0.673828125 0 -1.2109375 -0.439453125 t-0.91309 -1.2305 t-0.57129 -1.875 t-0.19531 -2.373 q0 -0.322265625 0.009765625 -0.7568359375 t0.039063 -0.91797 t0.087891 -0.99609 t0.15625 -1.001 l-3.5059 0 q-0.15625 0 -0.263671875 -0.0927734375 t-0.10742 -0.24902 t0.10742 -0.24902 t0.26367 -0.092773 l3.6719 0 q0.09765625 -0.3515625 0.2294921875 -0.64453125 t0.30273 -0.50781 t0.38086 -0.33691 t0.45898 -0.12207 t0.42969 0.12207 t0.30762 0.33691 t0.2002 0.50781 t0.1123 0.64453 l4.9902 0 q0.15625 0 0.263671875 0.0927734375 t0.10742 0.24902 z M106.3574175 16.3086 q0.29296875 -0.64453125 0.5322265625 -1.391601563 t0.41016 -1.5088 t0.26367 -1.4941 t0.092773 -1.3477 l-1.1523 0 q-0.13671875 0.60546875 -0.2197265625 1.499023438 t-0.083008 2.1729 q0 0.712890625 0.0390625 1.196289063 t0.11719 0.87402 z M107.2655875 9.004 q-0.087890625 0 -0.25390625 0.1904296875 t-0.33203 0.68848 l0.9375 0 q-0.048828125 -0.41015625 -0.1416015625 -0.64453125 t-0.20996 -0.23438 z M106.5136875 17.0117 l0 0.0097656 l0 -0.0097656 z M111.24025625 19.16992 q0.15625 -0.33203125 0.361328125 -0.7177734375 t0.43945 -0.79102 t0.49805 -0.80566 t0.54688 -0.74707 t0.57129 -0.49805 t0.54199 -0.15137 t0.44434 0.10254 t0.3125 0.27832 t0.18555 0.41016 t0.063477 0.50781 q0 0.224609375 -0.0439453125 0.6005859375 t-0.043945 0.78613 q0 0.234375 0.0244140625 0.4638671875 t0.087891 0.41016 t0.19043 0.29297 t0.33203 0.1123 q0.234375 0 0.46875 -0.1318359375 t0.45898 -0.35156 t0.42969 -0.48828 t0.37109 -0.53711 t0.29297 -0.51758 t0.20508 -0.41504 q0.09765625 -0.224609375 0.341796875 -0.224609375 q0.166015625 0 0.263671875 0.1171875 t0.097656 0.25391 q0 0.078125 -0.029296875 0.146484375 l-0.14648 0.32227 q-0.1171875 0.244140625 -0.3076171875 0.56640625 t-0.44434 0.67383 t-0.56152 0.64941 t-0.66406 0.48828 t-0.74707 0.19043 q-0.44921875 0 -0.72265625 -0.1904296875 t-0.4248 -0.4834 t-0.20508 -0.6543 t-0.053711 -0.70313 q0 -0.17578125 0.01953125 -0.380859375 l0.068359 -0.76172 q0.009765625 -0.166015625 0.009765625 -0.283203125 q0 -0.302734375 -0.0830078125 -0.41015625 t-0.19043 -0.10742 q-0.15625 0 -0.3564453125 0.1806640625 t-0.41992 0.47363 t-0.43945 0.65918 t-0.4248 0.72754 t-0.37109 0.68359 l-0.27344 0.54688 q-0.205078125 0.41015625 -0.4150390625 0.5517578125 t-0.37598 0.1416 q-0.302734375 0 -0.4638671875 -0.2392578125 t-0.16113 -0.58105 l0.0097656 -4.1406 q0 -1.669921875 0.0439453125 -3.110351563 t0.14648 -2.6074 t0.30762 -1.9922 t0.52246 -1.2744 t0.7959 -0.44922 q0.41015625 0 0.693359375 0.224609375 t0.45898 0.61035 t0.25391 0.89844 t0.078125 1.0791 q0 1.15234375 -0.2099609375 2.260742188 t-0.56152 2.1631 t-0.82031 2.0557 t-0.98633 1.9482 l0 1.709 z M111.24025625 15.5664 q0.41015625 -0.8984375 0.7470703125 -1.752929688 t0.57617 -1.7041 t0.37598 -1.7236 t0.13672 -1.8213 q0 -0.15625 -0.0146484375 -0.498046875 t-0.087891 -0.69336 t-0.22461 -0.61523 t-0.4248 -0.26367 q-0.21484375 0 -0.37109375 0.2880859375 t-0.27344 0.78125 t-0.19531 1.1475 t-0.12695 1.3867 t-0.073242 1.5039 t-0.03418 1.499 t-0.0097656 1.3623 l0 1.1035 z M122.480421875 18.9258 q-0.244140625 0 -0.4296875 -0.0390625 q-0.146484375 0.29296875 -0.3515625 0.5419921875 t-0.47363 0.43457 t-0.60059 0.29297 t-0.72266 0.10742 q-0.458984375 0 -0.83984375 -0.1611328125 t-0.66406 -0.44922 t-0.43945 -0.69336 t-0.15625 -0.89355 q0 -0.625 0.224609375 -1.088867188 t0.51758 -0.77148 t0.58594 -0.45898 t0.44922 -0.15137 t0.23926 0.087891 t0.083008 0.24414 t-0.10254 0.23926 t-0.25879 0.16113 t-0.33203 0.21973 t-0.32715 0.35645 t-0.24902 0.50781 t-0.097656 0.6543 q0 0.322265625 0.09765625 0.6005859375 t0.2832 0.47852 t0.43945 0.3125 t0.56641 0.1123 q0.556640625 0 0.9228515625 -0.2587890625 t0.56152 -0.65918 q-0.576171875 -0.302734375 -0.947265625 -0.859375 t-0.37109 -1.25 q0 -0.556640625 0.2685546875 -0.908203125 t0.70801 -0.35156 q0.263671875 0 0.498046875 0.126953125 t0.41504 0.40039 t0.28809 0.70313 t0.10742 1.0254 q0 0.3125 -0.078125 0.654296875 q0.05859375 0.009765625 0.1171875 0.009765625 l0.12695 0 q0.33203125 0 0.595703125 -0.078125 t0.47852 -0.23438 t0.38574 -0.40039 t0.32715 -0.56641 q0.029296875 -0.05859375 0.126953125 -0.1123046875 t0.19531 -0.053711 q0.126953125 0 0.2392578125 0.1025390625 t0.1123 0.26855 q0 0.078125 -0.0390625 0.1708984375 t-0.078125 0.1709 q-0.166015625 0.29296875 -0.3857421875 0.5615234375 t-0.51758 0.46875 t-0.66895 0.31738 t-0.83008 0.10742 z M120.810521875 16.4648 q0 0.185546875 0.048828125 0.390625 t0.15137 0.40527 t0.25391 0.38086 t0.35645 0.30762 q0.029296875 -0.205078125 0.029296875 -0.400390625 q0 -0.263671875 -0.0390625 -0.537109375 t-0.1123 -0.50293 t-0.18066 -0.37109 t-0.25391 -0.1416 q-0.05859375 0 -0.15625 0.087890625 t-0.097656 0.38086 z M127.53908125 18.9062 q-0.341796875 0.556640625 -0.7958984375 0.87890625 t-0.91309 0.32227 q-0.37109375 0 -0.6640625 -0.13671875 t-0.50781 -0.38574 t-0.32715 -0.60059 t-0.1123 -0.79102 q0 -0.68359375 0.1318359375 -1.2109375 t0.28809 -0.88379 t0.29297 -0.54199 l0.13672 -0.18555 q0.048828125 -0.05859375 0.1220703125 -0.087890625 t0.15137 -0.029297 q0.15625 0 0.2587890625 0.1123046875 t0.10254 0.25879 q0 0.05859375 -0.01953125 0.1171875 l-0.058594 0.11719 l-0.15625 0.26367 q-0.107421875 0.185546875 -0.224609375 0.478515625 t-0.20508 0.68848 t-0.087891 0.90332 q0 0.576171875 0.2294921875 0.8740234375 t0.64941 0.29785 q0.17578125 0 0.4052734375 -0.1123046875 t0.44922 -0.34668 t0.38574 -0.5957 t0.21484 -0.84961 l0.14648 -1.6797 q0.01953125 -0.146484375 0.126953125 -0.244140625 t0.26367 -0.097656 t0.25391 0.12207 t0.097656 0.27832 l-0.12695 1.6211 q-0.01953125 0.205078125 0.0146484375 0.537109375 t0.1416 0.6543 t0.32227 0.55176 t0.56641 0.22949 q0.25390625 0 0.498046875 -0.1318359375 t0.46875 -0.34668 t0.41504 -0.4834 t0.35156 -0.54199 t0.27832 -0.52734 l0.19531 -0.41992 q0.048828125 -0.107421875 0.13671875 -0.166015625 t0.19531 -0.058594 q0.17578125 0 0.2734375 0.1171875 t0.097656 0.25391 q0 0.078125 -0.029296875 0.146484375 l-0.14648 0.32227 q-0.1171875 0.25390625 -0.2978515625 0.5712890625 t-0.43457 0.66895 t-0.56641 0.64941 t-0.67871 0.48828 t-0.78613 0.19043 q-0.576171875 0 -0.95703125 -0.3271484375 t-0.56641 -0.93262 z M134.834034375 20.95703 q1.8359375 -2.392578125 2.548828125 -3.974609375 q0.048828125 -0.107421875 0.1318359375 -0.1611328125 t0.19043 -0.053711 q0.166015625 0 0.2734375 0.1123046875 t0.10742 0.25879 q0 0.068359375 -0.029296875 0.13671875 q-0.4296875 0.9765625 -1.220703125 2.177734375 t-2.002 2.7148 q0 0.615234375 0.009765625 1.23046875 t0.0097656 1.3477 t-0.03418 1.4502 t-0.12207 1.3672 t-0.23926 1.2012 t-0.39063 0.95703 t-0.57617 0.63477 t-0.7959 0.22949 q-0.654296875 0 -1.005859375 -0.498046875 t-0.35156 -1.416 q0 -0.48828125 0.0927734375 -1.059570313 t0.26855 -1.1768 t0.4248 -1.2256 t0.55176 -1.2061 t0.65918 -1.123 t0.75684 -0.97656 l0.019531 -1.3574 q0 -0.673828125 0.01953125 -1.240234375 q-0.29296875 0.37109375 -0.6982421875 0.5859375 t-0.80566 0.21484 q-0.341796875 0 -0.6201171875 -0.1318359375 t-0.47363 -0.37109 t-0.30273 -0.56152 t-0.10742 -0.70313 q0 -0.76171875 0.2587890625 -1.342773438 t0.65918 -0.97168 t0.88379 -0.58594 t0.93262 -0.19531 q0.302734375 0 0.556640625 0.078125 t0.43457 0.17578 t0.27832 0.18555 l0.10742 0.097656 q0.107421875 0.1171875 0.107421875 0.263671875 t-0.10742 0.25879 t-0.24902 0.1123 t-0.26855 -0.10742 l-0.097656 -0.087891 q-0.068359375 -0.048828125 -0.1708984375 -0.107421875 t-0.24414 -0.097656 t-0.33691 -0.039063 q-0.29296875 0 -0.64453125 0.1318359375 t-0.6543 0.41504 t-0.50781 0.72754 t-0.20508 1.0693 q0 0.46875 0.205078125 0.7568359375 t0.63477 0.28809 q0.205078125 0 0.4345703125 -0.1171875 t0.44434 -0.36133 t0.37598 -0.61523 t0.22949 -0.87891 q0.01953125 -0.13671875 0.126953125 -0.2294921875 t0.26367 -0.092773 t0.24902 0.11719 t0.092773 0.26367 l-0.048828 2.168 q-0.01953125 0.634765625 -0.029296875 1.337890625 z M134.091834375 23.0957 q-0.458984375 0.634765625 -0.830078125 1.381835938 t-0.63477 1.5088 t-0.40527 1.4795 t-0.1416 1.2842 q0 0.361328125 0.0634765625 0.576171875 t0.15625 0.33203 t0.20508 0.15625 t0.20996 0.039063 q0.302734375 0 0.52734375 -0.244140625 t0.38086 -0.64941 t0.25391 -0.93262 t0.14648 -1.0889 t0.068359 -1.1182 t0.019531 -1.0254 l0 -0.83984 z M138.15431875 19.16992 q0.15625 -0.33203125 0.361328125 -0.7177734375 t0.43945 -0.79102 t0.49805 -0.80566 t0.54688 -0.74707 t0.57129 -0.49805 t0.54199 -0.15137 t0.44434 0.10254 t0.3125 0.27832 t0.18555 0.41016 t0.063477 0.50781 q0 0.224609375 -0.0439453125 0.6005859375 t-0.043945 0.78613 q0 0.234375 0.0244140625 0.4638671875 t0.087891 0.41016 t0.19043 0.29297 t0.33203 0.1123 q0.234375 0 0.46875 -0.1318359375 t0.45898 -0.35156 t0.42969 -0.48828 t0.37109 -0.53711 t0.29297 -0.51758 t0.20508 -0.41504 q0.09765625 -0.224609375 0.341796875 -0.224609375 q0.166015625 0 0.263671875 0.1171875 t0.097656 0.25391 q0 0.078125 -0.029296875 0.146484375 l-0.14648 0.32227 q-0.1171875 0.244140625 -0.3076171875 0.56640625 t-0.44434 0.67383 t-0.56152 0.64941 t-0.66406 0.48828 t-0.74707 0.19043 q-0.44921875 0 -0.72265625 -0.1904296875 t-0.4248 -0.4834 t-0.20508 -0.6543 t-0.053711 -0.70313 q0 -0.17578125 0.01953125 -0.380859375 l0.068359 -0.76172 q0.009765625 -0.166015625 0.009765625 -0.283203125 q0 -0.302734375 -0.0830078125 -0.41015625 t-0.19043 -0.10742 q-0.15625 0 -0.3564453125 0.1806640625 t-0.41992 0.47363 t-0.43945 0.65918 t-0.4248 0.72754 t-0.37109 0.68359 l-0.27344 0.54688 q-0.205078125 0.41015625 -0.4150390625 0.5517578125 t-0.37598 0.1416 q-0.302734375 0 -0.4638671875 -0.2392578125 t-0.16113 -0.58105 l0.0097656 -4.1406 q0 -1.669921875 0.0439453125 -3.110351563 t0.14648 -2.6074 t0.30762 -1.9922 t0.52246 -1.2744 t0.7959 -0.44922 q0.41015625 0 0.693359375 0.224609375 t0.45898 0.61035 t0.25391 0.89844 t0.078125 1.0791 q0 1.15234375 -0.2099609375 2.260742188 t-0.56152 2.1631 t-0.82031 2.0557 t-0.98633 1.9482 l0 1.709 z M138.15431875 15.5664 q0.41015625 -0.8984375 0.7470703125 -1.752929688 t0.57617 -1.7041 t0.37598 -1.7236 t0.13672 -1.8213 q0 -0.15625 -0.0146484375 -0.498046875 t-0.087891 -0.69336 t-0.22461 -0.61523 t-0.4248 -0.26367 q-0.21484375 0 -0.37109375 0.2880859375 t-0.27344 0.78125 t-0.19531 1.1475 t-0.12695 1.3867 t-0.073242 1.5039 t-0.03418 1.499 t-0.0097656 1.3623 l0 1.1035 z M152.802784375 10.2246 q0 0.15625 -0.107421875 0.2490234375 t-0.26367 0.092773 l-4.9512 0 l0 0.10742 q0 0.595703125 -0.087890625 1.26953125 t-0.23926 1.3428 t-0.3418 1.3037 t-0.39063 1.1719 t-0.39551 0.93262 t-0.35156 0.59082 q0.126953125 0.44921875 0.302734375 0.8349609375 t0.39551 0.67383 t0.47363 0.4541 t0.54688 0.16602 q0.341796875 0 0.6787109375 -0.2880859375 t0.625 -0.68359 t0.50781 -0.80078 t0.31738 -0.64453 t0.3418 -0.23926 q0.166015625 0 0.2685546875 0.1171875 t0.10254 0.25391 q0 0.068359375 -0.029296875 0.13671875 l-0.13672 0.3125 q-0.1171875 0.244140625 -0.2978515625 0.56640625 t-0.41992 0.67871 t-0.53711 0.64941 t-0.63965 0.48828 t-0.72266 0.19531 q-0.673828125 0 -1.2109375 -0.439453125 t-0.91309 -1.2305 t-0.57129 -1.875 t-0.19531 -2.373 q0 -0.322265625 0.009765625 -0.7568359375 t0.039063 -0.91797 t0.087891 -0.99609 t0.15625 -1.001 l-3.5059 0 q-0.15625 0 -0.263671875 -0.0927734375 t-0.10742 -0.24902 t0.10742 -0.24902 t0.26367 -0.092773 l3.6719 0 q0.09765625 -0.3515625 0.2294921875 -0.64453125 t0.30273 -0.50781 t0.38086 -0.33691 t0.45898 -0.12207 t0.42969 0.12207 t0.30762 0.33691 t0.2002 0.50781 t0.1123 0.64453 l4.9902 0 q0.15625 0 0.263671875 0.0927734375 t0.10742 0.24902 z M145.449214375 16.3086 q0.29296875 -0.64453125 0.5322265625 -1.391601563 t0.41016 -1.5088 t0.26367 -1.4941 t0.092773 -1.3477 l-1.1523 0 q-0.13671875 0.60546875 -0.2197265625 1.499023438 t-0.083008 2.1729 q0 0.712890625 0.0390625 1.196289063 t0.11719 0.87402 z M146.357384375 9.004 q-0.087890625 0 -0.25390625 0.1904296875 t-0.33203 0.68848 l0.9375 0 q-0.048828125 -0.41015625 -0.1416015625 -0.64453125 t-0.20996 -0.23438 z M145.605484375 17.0117 l0 0.0097656 l0 -0.0097656 z M150.644553125 16.3867 q-0.05859375 0.15625 -0.1416015625 0.3515625 t-0.19043 0.41016 q-0.087890625 0.166015625 -0.1806640625 0.2587890625 t-0.24902 0.092773 t-0.25391 -0.10254 t-0.097656 -0.23926 q0 -0.048828125 0.009765625 -0.0830078125 t0.048828 -0.1123 q0.25390625 -0.48828125 0.3759765625 -0.8544921875 t0.2002 -0.7666 q-0.068359375 -0.224609375 -0.09765625 -0.380859375 t-0.029297 -0.32227 q0 -0.322265625 0.13671875 -0.5224609375 t0.37109 -0.2002 t0.36621 0.19531 t0.13184 0.47852 q0 0.15625 -0.029296875 0.3125 l-0.078125 0.39063 q0.224609375 0.556640625 0.44921875 0.986328125 t0.40039 0.78613 t0.28809 0.66895 t0.1123 0.625 q0 0.41015625 -0.166015625 0.78125 t-0.54688 0.625 q0.048828125 0.009765625 0.09765625 0.009765625 l0.097656 0 q0.556640625 0 1.025390625 -0.25390625 t0.84473 -0.65918 t0.66895 -0.89844 t0.50781 -0.98145 q0.09765625 -0.224609375 0.2685546875 -0.224609375 t0.26367 0.11719 t0.092773 0.25391 q0 0.078125 -0.029296875 0.146484375 q-0.107421875 0.263671875 -0.2783203125 0.6005859375 t-0.41016 0.69336 t-0.55176 0.69824 t-0.69824 0.61035 t-0.84473 0.42969 t-1.0059 0.16113 q-0.654296875 0 -1.215820313 -0.2294921875 t-0.91309 -0.75684 q-0.05859375 -0.087890625 -0.05859375 -0.185546875 q0 -0.146484375 0.1123046875 -0.2587890625 t0.26367 -0.1123 t0.25879 0.10742 q0.009765625 0.01953125 0.068359375 0.05859375 l0.14648 0.097656 q0.078125 0.05859375 0.1904296875 0.09765625 t0.22949 0.039063 q0.234375 0 0.3955078125 -0.09765625 t0.25879 -0.23926 t0.1416 -0.30273 t0.043945 -0.27832 q0 -0.244140625 -0.078125 -0.48828125 t-0.2002 -0.48828 t-0.26367 -0.50293 t-0.25879 -0.54199 z M156.367178125 19.63867 q0 0.703125 -0.2099609375 1.362304688 t-0.7666 1.1865 q-0.126953125 0.107421875 -0.263671875 0.107421875 t-0.25391 -0.10254 t-0.11719 -0.25879 t0.10742 -0.26367 q0.37109375 -0.380859375 0.5712890625 -0.8740234375 t0.2002 -1.1279 q0 -0.15625 0.0927734375 -0.2685546875 t0.24902 -0.1123 t0.26855 0.092773 t0.12207 0.25879 z M163.388659375 20.47852 q0.72265625 -0.322265625 1.313476563 -0.7421875 t1.0547 -0.88379 t0.79102 -0.94727 t0.52246 -0.92285 q0.087890625 -0.21484375 0.33203125 -0.21484375 q0.166015625 0 0.2685546875 0.1123046875 t0.10254 0.24902 q0 0.078125 -0.029296875 0.146484375 q-0.21484375 0.478515625 -0.546875 0.9912109375 t-0.80566 1.0059 t-1.1084 0.95215 t-1.4551 0.83984 q0.52734375 0.546875 0.91796875 1.215820313 t0.64941 1.3916 t0.39063 1.46 t0.13184 1.4111 q0 0.615234375 -0.1123046875 1.157226563 t-0.33203 0.94238 t-0.53223 0.62988 t-0.71289 0.22949 q-0.5859375 0 -0.908203125 -0.4345703125 t-0.47363 -1.2012 t-0.17578 -1.8066 t-0.024414 -2.2607 l0.0097656 -3.1445 q0 -1.728515625 0.0048828125 -1.93359375 t0.014648 -2.0264 t0.019531 -1.9971 t0.03418 -1.8555 t0.1123 -2.998 t0.2832 -2.2266 t0.53223 -1.3818 t0.85449 -0.47363 q0.41015625 0 0.693359375 0.2294921875 t0.45898 0.61523 t0.25391 0.90332 t0.078125 1.084 q0 1.19140625 -0.205078125 2.3046875 t-0.55664 2.1582 t-0.8252 2.041 t-1.0107 1.9629 l0 2.6758 q-0.009765625 0.888671875 -0.009765625 0.7421875 z M163.417959375 15.5566 q0.400390625 -0.751953125 0.7373046875 -1.586914063 t0.58105 -1.7236 t0.38086 -1.8164 t0.13672 -1.8652 q0 -0.46875 -0.0439453125 -0.849609375 t-0.13672 -0.64941 t-0.23438 -0.41992 t-0.33203 -0.15137 t-0.33691 0.23438 t-0.25391 0.625 t-0.18066 0.89844 t-0.12207 1.0596 t-0.078125 1.1035 t-0.043945 1.0352 t-0.014648 0.85449 l-0.0097656 0.55664 l-0.039063 1.9141 z M163.388659375 21.6797 l0 1.1426 l-0.0097656 0.97656 q0 0.908203125 0.009765625 1.796875 t0.092773 1.5967 t0.25391 1.1426 t0.49316 0.43457 q0.29296875 0 0.478515625 -0.263671875 t0.28809 -0.625 t0.1416 -0.7373 t0.039063 -0.61035 q0 -0.595703125 -0.1123046875 -1.25 t-0.3418 -1.2939 t-0.56152 -1.2354 t-0.77148 -1.0742 z M168.66211875 12.334 q0 0.37109375 -0.2587890625 0.6298828125 t-0.62988 0.25879 t-0.62988 -0.25879 t-0.25879 -0.62988 q0 -0.185546875 0.068359375 -0.3466796875 t0.19043 -0.2832 t0.2832 -0.19043 t0.34668 -0.068359 t0.34668 0.068359 t0.2832 0.19043 t0.19043 0.2832 t0.068359 0.34668 z M167.08007875 18.0566 q0 -1.40625 0.17578125 -2.802734375 q0.01953125 -0.13671875 0.1220703125 -0.2392578125 t0.25879 -0.10254 t0.25391 0.1123 t0.097656 0.25879 q0 0.05859375 -0.01953125 0.3515625 l-0.058594 0.69336 q-0.0390625 0.41015625 -0.0634765625 0.8642578125 t-0.024414 0.83496 q0 0.517578125 0.1025390625 0.8349609375 t0.26367 0.49316 t0.3418 0.23438 t0.34668 0.058594 q0.2734375 0 0.56640625 -0.1953125 t0.60059 -0.54688 t0.62012 -0.84473 t0.61523 -1.0986 q0.048828125 -0.09765625 0.13671875 -0.1513671875 t0.19531 -0.053711 q0.15625 0 0.2587890625 0.1171875 t0.10254 0.25391 q0 0.09765625 -0.0390625 0.166015625 l-0.29297 0.54688 q-0.17578125 0.322265625 -0.400390625 0.6640625 t-0.49316 0.67871 t-0.57129 0.60547 t-0.63477 0.43457 t-0.67383 0.16602 q-0.439453125 0 -0.771484375 -0.185546875 t-0.56152 -0.49805 t-0.3418 -0.7373 t-0.1123 -0.91309 z M168.11521875 12.334 q0 -0.13671875 -0.1025390625 -0.2392578125 t-0.23926 -0.10254 t-0.23438 0.10254 t-0.097656 0.23926 t0.097656 0.23438 t0.23438 0.097656 t0.23926 -0.097656 t0.10254 -0.23438 z M173.4375375 19.12109 q0.15625 -0.322265625 0.361328125 -0.7080078125 t0.43945 -0.78125 t0.49316 -0.78613 t0.54199 -0.7373 t0.57129 -0.49805 t0.54199 -0.15137 q0.5078125 0 0.751953125 0.37109375 t0.24414 0.91797 q0 0.126953125 -0.009765625 0.302734375 l-0.058594 0.80078 q-0.01953125 0.21484375 -0.01953125 0.400390625 q0 0.234375 0.0244140625 0.44921875 t0.092773 0.37598 t0.19531 0.25391 t0.33203 0.092773 q0.37109375 0 0.72265625 -0.2880859375 t0.64941 -0.68359 t0.51758 -0.80566 t0.32715 -0.66406 q0.048828125 -0.107421875 0.1416015625 -0.166015625 t0.2002 -0.058594 q0.166015625 0 0.2685546875 0.1220703125 t0.10254 0.25879 q0 0.068359375 -0.029296875 0.13671875 l-0.15625 0.32227 q-0.1171875 0.244140625 -0.3076171875 0.5615234375 t-0.44434 0.67383 t-0.56152 0.64941 t-0.66406 0.48828 t-0.74707 0.19531 q-0.439453125 0 -0.712890625 -0.1708984375 t-0.42969 -0.44922 t-0.20996 -0.61523 t-0.053711 -0.67871 q0 -0.146484375 0.0146484375 -0.33203125 t0.039063 -0.39063 t0.039063 -0.41016 t0.014648 -0.39063 q0 -0.3125 -0.09765625 -0.4248046875 t-0.17578 -0.1123 q-0.15625 0 -0.3564453125 0.1806640625 t-0.41992 0.47363 t-0.44922 0.65918 t-0.42969 0.72754 t-0.37109 0.68848 t-0.26855 0.54199 q-0.1953125 0.41015625 -0.390625 0.5517578125 t-0.40039 0.1416 q-0.283203125 0 -0.4541015625 -0.1708984375 t-0.1709 -0.4834 q0 -0.068359375 0.01953125 -0.2734375 l0.16602 -1.7188 q0.029296875 -0.3125 0.048828125 -0.5859375 t0.019531 -0.45898 q0 -0.244140625 -0.01953125 -0.46875 t-0.078125 -0.27344 q-0.087890625 0.029296875 -0.3125 0.3662109375 t-0.57617 1.1865 q-0.048828125 0.107421875 -0.146484375 0.166015625 t-0.20508 0.058594 q-0.166015625 0 -0.263671875 -0.1123046875 t-0.097656 -0.25879 q0 -0.068359375 0.029296875 -0.146484375 q0.439453125 -1.044921875 0.8251953125 -1.538085938 t0.7666 -0.49316 q0.224609375 0 0.380859375 0.1123046875 t0.24902 0.29785 t0.13672 0.41016 t0.043945 0.45898 q0 0.17578125 -0.0244140625 0.546875 t-0.063477 0.79102 l-0.068359 0.84961 q-0.0390625 0.419921875 -0.068359375 0.703125 z M183.955121875 17.1582 q0.478515625 2.255859375 1.38671875 2.255859375 q0.3515625 0 0.673828125 -0.2587890625 t0.60059 -0.63477 t0.49316 -0.7959 t0.35156 -0.73242 q0.09765625 -0.234375 0.341796875 -0.234375 q0.15625 0 0.263671875 0.1171875 t0.10742 0.25391 q0 0.078125 -0.029296875 0.13671875 q-0.068359375 0.166015625 -0.2001953125 0.4443359375 t-0.32227 0.5957 t-0.4248 0.64941 t-0.51758 0.5957 t-0.60059 0.43457 t-0.66895 0.1709 q-0.654296875 0 -1.123046875 -0.4541015625 t-0.81055 -1.499 q-0.46875 0.99609375 -0.947265625 1.4453125 t-1.0352 0.44922 q-0.29296875 0 -0.56640625 -0.0927734375 t-0.47852 -0.30762 t-0.33203 -0.55176 t-0.12695 -0.8252 q0 -0.673828125 0.234375 -1.240234375 t0.60547 -0.97168 t0.8252 -0.62988 t0.90332 -0.22461 q0.146484375 0 0.25390625 0.1025390625 t0.10742 0.24902 t-0.087891 0.25391 t-0.23438 0.12695 q-0.29296875 0.0390625 -0.625 0.185546875 t-0.61035 0.4248 t-0.45898 0.70801 t-0.18066 1.0254 q0 0.48828125 0.2001953125 0.76171875 t0.58105 0.27344 q0.15625 0 0.33203125 -0.0830078125 t0.37598 -0.32715 t0.43945 -0.69336 t0.53223 -1.1816 q-0.166015625 -0.859375 -0.302734375 -1.982421875 t-0.13672 -2.5098 q0 -0.60546875 0.0390625 -1.264648438 t0.12695 -1.2891 t0.23438 -1.1963 t0.35645 -0.99609 t0.49316 -0.67871 t0.64453 -0.24902 q0.322265625 0 0.546875 0.17578125 t0.36621 0.48828 t0.20996 0.75195 t0.068359 0.9668 q0 1.1328125 -0.1953125 2.265625 t-0.4834 2.168 t-0.61035 1.9141 t-0.58594 1.5137 z M185.097621875 9.287 q0 -0.244140625 -0.0146484375 -0.52734375 t-0.068359 -0.53223 t-0.1416 -0.41504 t-0.23438 -0.16602 q-0.244140625 0 -0.4541015625 0.4296875 t-0.36621 1.1279 t-0.24902 1.582 t-0.092773 1.7822 q0 0.859375 0.068359375 1.71875 t0.15625 1.5332 q0.283203125 -0.751953125 0.537109375 -1.547851563 t0.44434 -1.626 t0.30273 -1.6748 t0.1123 -1.6846 z M195.498040625 20.13672 q0.341796875 -0.341796875 0.693359375 -0.6982421875 t0.68359 -0.74707 t0.62012 -0.81543 t0.5127 -0.90332 q0.048828125 -0.107421875 0.13671875 -0.1611328125 t0.19531 -0.053711 q0.166015625 0 0.2685546875 0.1171875 t0.10254 0.26367 q0 0.078125 -0.029296875 0.146484375 q-0.302734375 0.634765625 -0.693359375 1.162109375 t-0.82031 1.001 t-0.86914 0.91797 t-0.83984 0.89355 q-0.0390625 0.673828125 0 1.352539063 t0.039063 1.4404 q0 0.625 -0.0390625 1.25 t-0.12695 1.1963 t-0.23926 1.0693 t-0.38574 0.86426 t-0.54688 0.57617 t-0.73242 0.20996 q-0.693359375 0 -1.064453125 -0.478515625 t-0.37109 -1.3379 q0 -0.46875 0.1025390625 -1.005859375 t0.28809 -1.1084 t0.44434 -1.1572 t0.56152 -1.1426 t0.64453 -1.0596 t0.69336 -0.91309 l0.048828 -0.97656 q0.01953125 -0.498046875 0.048828125 -0.927734375 q-0.25390625 0.44921875 -0.6298828125 0.72265625 t-0.8252 0.27344 q-0.7421875 0 -1.162109375 -0.498046875 t-0.41992 -1.3672 q0 -0.634765625 0.1220703125 -1.157226563 t0.26367 -0.89844 t0.25879 -0.57617 t0.11719 -0.19043 q0.107421875 -0.166015625 0.302734375 -0.166015625 q0.166015625 0 0.2685546875 0.1123046875 t0.10254 0.25879 q0 0.107421875 -0.05859375 0.1953125 q0.009765625 -0.009765625 -0.0927734375 0.1611328125 t-0.22461 0.49316 t-0.22461 0.77148 t-0.10254 0.98633 t0.19531 0.83984 t0.63477 0.30273 q0.556640625 0 1.005859375 -0.8251953125 t0.76172 -2.3975 q0.01953125 -0.126953125 0.1171875 -0.2099609375 t0.24414 -0.083008 t0.25391 0.10742 t0.10742 0.26367 q0 0.029296875 -0.0390625 0.3466796875 t-0.092773 0.84473 t-0.1123 1.2256 t-0.097656 1.4893 z M194.716840625 22.207 q-0.439453125 0.634765625 -0.8056640625 1.337890625 t-0.62988 1.3965 t-0.41016 1.3281 t-0.14648 1.1377 t0.16602 0.79102 t0.52734 0.28809 q0.322265625 0 0.5712890625 -0.3173828125 t0.41992 -0.90332 t0.25879 -1.4209 t0.087891 -1.8701 q0 -0.419921875 -0.0146484375 -0.849609375 t-0.024414 -0.91797 z M202.50971875 18.9258 q-0.244140625 0 -0.4296875 -0.0390625 q-0.146484375 0.29296875 -0.3515625 0.5419921875 t-0.47363 0.43457 t-0.60059 0.29297 t-0.72266 0.10742 q-0.458984375 0 -0.83984375 -0.1611328125 t-0.66406 -0.44922 t-0.43945 -0.69336 t-0.15625 -0.89355 q0 -0.625 0.224609375 -1.088867188 t0.51758 -0.77148 t0.58594 -0.45898 t0.44922 -0.15137 t0.23926 0.087891 t0.083008 0.24414 t-0.10254 0.23926 t-0.25879 0.16113 t-0.33203 0.21973 t-0.32715 0.35645 t-0.24902 0.50781 t-0.097656 0.6543 q0 0.322265625 0.09765625 0.6005859375 t0.2832 0.47852 t0.43945 0.3125 t0.56641 0.1123 q0.556640625 0 0.9228515625 -0.2587890625 t0.56152 -0.65918 q-0.576171875 -0.302734375 -0.947265625 -0.859375 t-0.37109 -1.25 q0 -0.556640625 0.2685546875 -0.908203125 t0.70801 -0.35156 q0.263671875 0 0.498046875 0.126953125 t0.41504 0.40039 t0.28809 0.70313 t0.10742 1.0254 q0 0.3125 -0.078125 0.654296875 q0.05859375 0.009765625 0.1171875 0.009765625 l0.12695 0 q0.33203125 0 0.595703125 -0.078125 t0.47852 -0.23438 t0.38574 -0.40039 t0.32715 -0.56641 q0.029296875 -0.05859375 0.126953125 -0.1123046875 t0.19531 -0.053711 q0.126953125 0 0.2392578125 0.1025390625 t0.1123 0.26855 q0 0.078125 -0.0390625 0.1708984375 t-0.078125 0.1709 q-0.166015625 0.29296875 -0.3857421875 0.5615234375 t-0.51758 0.46875 t-0.66895 0.31738 t-0.83008 0.10742 z M200.83981875 16.4648 q0 0.185546875 0.048828125 0.390625 t0.15137 0.40527 t0.25391 0.38086 t0.35645 0.30762 q0.029296875 -0.205078125 0.029296875 -0.400390625 q0 -0.263671875 -0.0390625 -0.537109375 t-0.1123 -0.50293 t-0.18066 -0.37109 t-0.25391 -0.1416 q-0.05859375 0 -0.15625 0.087890625 t-0.097656 0.38086 z M207.568378125 18.9062 q-0.341796875 0.556640625 -0.7958984375 0.87890625 t-0.91309 0.32227 q-0.37109375 0 -0.6640625 -0.13671875 t-0.50781 -0.38574 t-0.32715 -0.60059 t-0.1123 -0.79102 q0 -0.68359375 0.1318359375 -1.2109375 t0.28809 -0.88379 t0.29297 -0.54199 l0.13672 -0.18555 q0.048828125 -0.05859375 0.1220703125 -0.087890625 t0.15137 -0.029297 q0.15625 0 0.2587890625 0.1123046875 t0.10254 0.25879 q0 0.05859375 -0.01953125 0.1171875 l-0.058594 0.11719 l-0.15625 0.26367 q-0.107421875 0.185546875 -0.224609375 0.478515625 t-0.20508 0.68848 t-0.087891 0.90332 q0 0.576171875 0.2294921875 0.8740234375 t0.64941 0.29785 q0.17578125 0 0.4052734375 -0.1123046875 t0.44922 -0.34668 t0.38574 -0.5957 t0.21484 -0.84961 l0.14648 -1.6797 q0.01953125 -0.146484375 0.126953125 -0.244140625 t0.26367 -0.097656 t0.25391 0.12207 t0.097656 0.27832 l-0.12695 1.6211 q-0.01953125 0.205078125 0.0146484375 0.537109375 t0.1416 0.6543 t0.32227 0.55176 t0.56641 0.22949 q0.25390625 0 0.498046875 -0.1318359375 t0.46875 -0.34668 t0.41504 -0.4834 t0.35156 -0.54199 t0.27832 -0.52734 l0.19531 -0.41992 q0.048828125 -0.107421875 0.13671875 -0.166015625 t0.19531 -0.058594 q0.17578125 0 0.2734375 0.1171875 t0.097656 0.25391 q0 0.078125 -0.029296875 0.146484375 l-0.14648 0.32227 q-0.1171875 0.25390625 -0.2978515625 0.5712890625 t-0.43457 0.66895 t-0.56641 0.64941 t-0.67871 0.48828 t-0.78613 0.19043 q-0.576171875 0 -0.95703125 -0.3271484375 t-0.56641 -0.93262 z M212.35353125 15.9863 q-0.0390625 0.263671875 -0.09765625 0.4931640625 t-0.1123 0.40039 t-0.092773 0.27832 t-0.048828 0.11719 q-0.09765625 0.224609375 -0.341796875 0.224609375 q-0.13671875 0 -0.25390625 -0.1025390625 t-0.11719 -0.25879 q0 -0.05859375 0.01953125 -0.087890625 t0.058594 -0.11719 t0.097656 -0.29297 t0.14648 -0.63477 q-0.166015625 0 -0.341796875 -0.009765625 t-0.32715 -0.068359 t-0.24902 -0.18555 t-0.097656 -0.35156 q0 -0.166015625 0.0927734375 -0.44921875 t0.24902 -0.55664 t0.35156 -0.47363 t0.39063 -0.2002 q0.224609375 0 0.3662109375 0.166015625 t0.21973 0.40527 t0.1123 0.50293 t0.03418 0.45898 l0.63477 -0.0097656 q0.556640625 0 0.849609375 0.244140625 t0.29297 0.80078 q0 0.224609375 -0.029296875 0.46875 t-0.068359 0.50293 t-0.068359 0.5127 t-0.029297 0.49805 q0 0.3515625 0.09765625 0.5810546875 t0.24414 0.36621 t0.3125 0.19043 t0.30273 0.053711 q0.419921875 0 0.791015625 -0.2734375 t0.68359 -0.65918 t0.56152 -0.81543 t0.41504 -0.75195 q0.048828125 -0.087890625 0.13671875 -0.13671875 t0.18555 -0.048828 q0.17578125 0 0.2734375 0.1123046875 t0.097656 0.24902 q0 0.09765625 -0.0390625 0.17578125 q-0.224609375 0.400390625 -0.5224609375 0.9033203125 t-0.67871 0.94238 t-0.85449 0.74219 t-1.04 0.30273 q-0.3515625 0 -0.6640625 -0.1318359375 t-0.54199 -0.38086 t-0.36621 -0.61523 t-0.13672 -0.8252 q0 -0.48828125 0.09765625 -0.9716796875 t0.097656 -0.92285 q0 -0.185546875 -0.0830078125 -0.2783203125 t-0.36621 -0.092773 l-0.29297 0 z M211.69922125 15.2637 q0 -0.068359375 -0.0048828125 -0.1806640625 t-0.019531 -0.21973 t-0.039063 -0.18555 t-0.053711 -0.078125 t-0.073242 0.073242 t-0.092773 0.17578 t-0.087891 0.21973 t-0.058594 0.19531 l0.42969 0 z M230.019515625 17.2949 q-0.029296875 0.05859375 -0.126953125 0.2392578125 t-0.25391 0.41992 t-0.37109 0.50781 t-0.46875 0.49316 t-0.54688 0.37109 t-0.60547 0.14648 q-0.5078125 0 -0.859375 -0.1806640625 t-0.57617 -0.40527 q-0.15625 0.341796875 -0.380859375 0.625 t-0.49805 0.49316 t-0.58105 0.32715 t-0.62988 0.11719 q-0.595703125 0 -1.015625 -0.3515625 t-0.69824 -0.94238 t-0.43457 -1.3721 t-0.23926 -1.6406 t-0.10254 -1.7383 t-0.019531 -1.6699 q0 -1.513671875 0.087890625 -2.622070313 t0.23926 -1.8848 t0.35156 -1.2598 t0.4248 -0.75195 t0.45898 -0.36621 t0.45898 -0.097656 q0.361328125 0 0.6396484375 0.21484375 t0.46875 0.60059 t0.28809 0.93262 t0.097656 1.2012 q0 1.044921875 -0.224609375 2.158203125 t-0.58105 2.2217 t-0.7959 2.1777 t-0.86914 2.0264 q0.05859375 0.478515625 0.17578125 0.9130859375 t0.30273 0.77148 t0.43945 0.53711 t0.58594 0.2002 t0.625 -0.19043 t0.50781 -0.49805 t0.33691 -0.69824 t0.12207 -0.80078 q0 -0.2734375 -0.0537109375 -0.5517578125 t-0.16602 -0.49805 t-0.27832 -0.35645 t-0.40039 -0.13672 q-0.17578125 0 -0.2734375 0.0732421875 t-0.14648 0.16602 t-0.058594 0.18066 l-0.0097656 0.11719 q0 0.13671875 0.05859375 0.2734375 t0.22461 0.24902 t0.16602 0.31738 q0 0.166015625 -0.1123046875 0.263671875 t-0.24902 0.097656 q-0.1953125 0 -0.3466796875 -0.1171875 t-0.25879 -0.29785 t-0.16602 -0.38574 t-0.058594 -0.38086 q0 -0.283203125 0.09765625 -0.5224609375 t0.26855 -0.41016 t0.39063 -0.26367 t0.46387 -0.092773 q0.419921875 0 0.7275390625 0.1953125 t0.5127 0.51758 t0.30273 0.73242 t0.097656 0.83008 q0 0.244140625 -0.029296875 0.478515625 q0.0390625 0.078125 0.126953125 0.205078125 t0.23438 0.24414 t0.35156 0.20508 t0.47852 0.087891 q0.234375 0 0.4833984375 -0.1806640625 t0.47852 -0.44922 t0.4248 -0.57617 t0.32227 -0.57129 q0.048828125 -0.09765625 0.13671875 -0.1513671875 t0.19531 -0.053711 q0.166015625 0 0.2685546875 0.1171875 t0.10254 0.26367 q0 0.05859375 -0.0390625 0.15625 z M222.470715625 16.0352 q0.33203125 -0.8203125 0.673828125 -1.723632813 t0.61523 -1.8408 t0.44922 -1.8945 t0.17578 -1.8848 q0 -0.3515625 -0.0341796875 -0.7373046875 t-0.12207 -0.70801 t-0.23926 -0.53711 t-0.38574 -0.21484 q-0.078125 0 -0.2001953125 0.1025390625 t-0.25879 0.36133 t-0.27344 0.71777 t-0.24902 1.167 t-0.18555 1.7041 t-0.073242 2.3438 q0 0.44921875 0.009765625 0.9130859375 t0.024414 0.88379 t0.03418 0.77148 t0.039063 0.57617 z M234.912075 17.2949 q-0.107421875 0.224609375 -0.2685546875 0.5322265625 t-0.36621 0.63965 t-0.45898 0.65918 t-0.55176 0.58594 t-0.63477 0.41992 t-0.71777 0.16113 q-0.5859375 0 -1.005859375 -0.361328125 t-0.71289 -0.94727 t-0.47363 -1.333 t-0.27832 -1.5234 t-0.13184 -1.5088 t-0.03418 -1.2988 q0 -0.8203125 0.0537109375 -1.69921875 t0.1709 -1.7188 t0.29785 -1.5918 t0.42969 -1.3184 t0.57129 -0.89844 t0.73242 -0.33203 q0.322265625 0 0.5810546875 0.1513671875 t0.43457 0.49316 t0.27344 0.88867 t0.097656 1.3379 q0 0.9765625 -0.205078125 2.016601563 t-0.55664 2.0947 t-0.83008 2.1045 t-1.0254 2.0459 q0.244140625 1.240234375 0.654296875 1.948242188 t0.98633 0.70801 q0.390625 0 0.751953125 -0.3076171875 t0.66406 -0.72754 t0.53223 -0.85449 t0.35645 -0.69824 q0.048828125 -0.09765625 0.13671875 -0.1513671875 t0.19531 -0.053711 q0.166015625 0 0.2685546875 0.1171875 t0.10254 0.26367 q0 0.05859375 -0.0390625 0.15625 z M230.019575 13.3691 q0 0.625 0.029296875 1.201171875 t0.078125 1.1035 q0.41015625 -0.791015625 0.78125 -1.684570313 t0.6543 -1.8066 t0.4541 -1.8164 t0.1709 -1.7236 q0 -1.15234375 -0.185546875 -1.650390625 t-0.49805 -0.49805 q-0.205078125 0 -0.3955078125 0.283203125 t-0.35645 0.77148 t-0.30273 1.1523 t-0.22949 1.4258 t-0.14648 1.5918 t-0.053711 1.6504 z M238.749953125 18.9258 q-0.244140625 0 -0.4296875 -0.0390625 q-0.146484375 0.29296875 -0.3515625 0.5419921875 t-0.47363 0.43457 t-0.60059 0.29297 t-0.72266 0.10742 q-0.458984375 0 -0.83984375 -0.1611328125 t-0.66406 -0.44922 t-0.43945 -0.69336 t-0.15625 -0.89355 q0 -0.625 0.224609375 -1.088867188 t0.51758 -0.77148 t0.58594 -0.45898 t0.44922 -0.15137 t0.23926 0.087891 t0.083008 0.24414 t-0.10254 0.23926 t-0.25879 0.16113 t-0.33203 0.21973 t-0.32715 0.35645 t-0.24902 0.50781 t-0.097656 0.6543 q0 0.322265625 0.09765625 0.6005859375 t0.2832 0.47852 t0.43945 0.3125 t0.56641 0.1123 q0.556640625 0 0.9228515625 -0.2587890625 t0.56152 -0.65918 q-0.576171875 -0.302734375 -0.947265625 -0.859375 t-0.37109 -1.25 q0 -0.556640625 0.2685546875 -0.908203125 t0.70801 -0.35156 q0.263671875 0 0.498046875 0.126953125 t0.41504 0.40039 t0.28809 0.70313 t0.10742 1.0254 q0 0.3125 -0.078125 0.654296875 q0.05859375 0.009765625 0.1171875 0.009765625 l0.12695 0 q0.33203125 0 0.595703125 -0.078125 t0.47852 -0.23438 t0.38574 -0.40039 t0.32715 -0.56641 q0.029296875 -0.05859375 0.126953125 -0.1123046875 t0.19531 -0.053711 q0.126953125 0 0.2392578125 0.1025390625 t0.1123 0.26855 q0 0.078125 -0.0390625 0.1708984375 t-0.078125 0.1709 q-0.166015625 0.29296875 -0.3857421875 0.5615234375 t-0.51758 0.46875 t-0.66895 0.31738 t-0.83008 0.10742 z M237.080053125 16.4648 q0 0.185546875 0.048828125 0.390625 t0.15137 0.40527 t0.25391 0.38086 t0.35645 0.30762 q0.029296875 -0.205078125 0.029296875 -0.400390625 q0 -0.263671875 -0.0390625 -0.537109375 t-0.1123 -0.50293 t-0.18066 -0.37109 t-0.25391 -0.1416 q-0.05859375 0 -0.15625 0.087890625 t-0.097656 0.38086 z M244.1016125 20.95703 q1.8359375 -2.392578125 2.548828125 -3.974609375 q0.048828125 -0.107421875 0.1318359375 -0.1611328125 t0.19043 -0.053711 q0.166015625 0 0.2734375 0.1123046875 t0.10742 0.25879 q0 0.068359375 -0.029296875 0.13671875 q-0.4296875 0.9765625 -1.220703125 2.177734375 t-2.002 2.7148 q0 0.615234375 0.009765625 1.23046875 t0.0097656 1.3477 t-0.03418 1.4502 t-0.12207 1.3672 t-0.23926 1.2012 t-0.39063 0.95703 t-0.57617 0.63477 t-0.7959 0.22949 q-0.654296875 0 -1.005859375 -0.498046875 t-0.35156 -1.416 q0 -0.48828125 0.0927734375 -1.059570313 t0.26855 -1.1768 t0.4248 -1.2256 t0.55176 -1.2061 t0.65918 -1.123 t0.75684 -0.97656 l0.019531 -1.3574 q0 -0.673828125 0.01953125 -1.240234375 q-0.29296875 0.37109375 -0.6982421875 0.5859375 t-0.80566 0.21484 q-0.341796875 0 -0.6201171875 -0.1318359375 t-0.47363 -0.37109 t-0.30273 -0.56152 t-0.10742 -0.70313 q0 -0.76171875 0.2587890625 -1.342773438 t0.65918 -0.97168 t0.88379 -0.58594 t0.93262 -0.19531 q0.302734375 0 0.556640625 0.078125 t0.43457 0.17578 t0.27832 0.18555 l0.10742 0.097656 q0.107421875 0.1171875 0.107421875 0.263671875 t-0.10742 0.25879 t-0.24902 0.1123 t-0.26855 -0.10742 l-0.097656 -0.087891 q-0.068359375 -0.048828125 -0.1708984375 -0.107421875 t-0.24414 -0.097656 t-0.33691 -0.039063 q-0.29296875 0 -0.64453125 0.1318359375 t-0.6543 0.41504 t-0.50781 0.72754 t-0.20508 1.0693 q0 0.46875 0.205078125 0.7568359375 t0.63477 0.28809 q0.205078125 0 0.4345703125 -0.1171875 t0.44434 -0.36133 t0.37598 -0.61523 t0.22949 -0.87891 q0.01953125 -0.13671875 0.126953125 -0.2294921875 t0.26367 -0.092773 t0.24902 0.11719 t0.092773 0.26367 l-0.048828 2.168 q-0.01953125 0.634765625 -0.029296875 1.337890625 z M243.3594125 23.0957 q-0.458984375 0.634765625 -0.830078125 1.381835938 t-0.63477 1.5088 t-0.40527 1.4795 t-0.1416 1.2842 q0 0.361328125 0.0634765625 0.576171875 t0.15625 0.33203 t0.20508 0.15625 t0.20996 0.039063 q0.302734375 0 0.52734375 -0.244140625 t0.38086 -0.64941 t0.25391 -0.93262 t0.14648 -1.0889 t0.068359 -1.1182 t0.019531 -1.0254 l0 -0.83984 z M247.675796875 15.9863 q-0.0390625 0.263671875 -0.09765625 0.4931640625 t-0.1123 0.40039 t-0.092773 0.27832 t-0.048828 0.11719 q-0.09765625 0.224609375 -0.341796875 0.224609375 q-0.13671875 0 -0.25390625 -0.1025390625 t-0.11719 -0.25879 q0 -0.05859375 0.01953125 -0.087890625 t0.058594 -0.11719 t0.097656 -0.29297 t0.14648 -0.63477 q-0.166015625 0 -0.341796875 -0.009765625 t-0.32715 -0.068359 t-0.24902 -0.18555 t-0.097656 -0.35156 q0 -0.166015625 0.0927734375 -0.44921875 t0.24902 -0.55664 t0.35156 -0.47363 t0.39063 -0.2002 q0.224609375 0 0.3662109375 0.166015625 t0.21973 0.40527 t0.1123 0.50293 t0.03418 0.45898 l0.63477 -0.0097656 q0.556640625 0 0.849609375 0.244140625 t0.29297 0.80078 q0 0.224609375 -0.029296875 0.46875 t-0.068359 0.50293 t-0.068359 0.5127 t-0.029297 0.49805 q0 0.3515625 0.09765625 0.5810546875 t0.24414 0.36621 t0.3125 0.19043 t0.30273 0.053711 q0.419921875 0 0.791015625 -0.2734375 t0.68359 -0.65918 t0.56152 -0.81543 t0.41504 -0.75195 q0.048828125 -0.087890625 0.13671875 -0.13671875 t0.18555 -0.048828 q0.17578125 0 0.2734375 0.1123046875 t0.097656 0.24902 q0 0.09765625 -0.0390625 0.17578125 q-0.224609375 0.400390625 -0.5224609375 0.9033203125 t-0.67871 0.94238 t-0.85449 0.74219 t-1.04 0.30273 q-0.3515625 0 -0.6640625 -0.1318359375 t-0.54199 -0.38086 t-0.36621 -0.61523 t-0.13672 -0.8252 q0 -0.48828125 0.09765625 -0.9716796875 t0.097656 -0.92285 q0 -0.185546875 -0.0830078125 -0.2783203125 t-0.36621 -0.092773 l-0.29297 0 z M247.021486875 15.2637 q0 -0.068359375 -0.0048828125 -0.1806640625 t-0.019531 -0.21973 t-0.039063 -0.18555 t-0.053711 -0.078125 t-0.073242 0.073242 t-0.092773 0.17578 t-0.087891 0.21973 t-0.058594 0.19531 l0.42969 0 z M253.48635 19.16992 q0.15625 -0.33203125 0.361328125 -0.7177734375 t0.43945 -0.79102 t0.49805 -0.80566 t0.54688 -0.74707 t0.57129 -0.49805 t0.54199 -0.15137 t0.44434 0.10254 t0.3125 0.27832 t0.18555 0.41016 t0.063477 0.50781 q0 0.224609375 -0.0439453125 0.6005859375 t-0.043945 0.78613 q0 0.234375 0.0244140625 0.4638671875 t0.087891 0.41016 t0.19043 0.29297 t0.33203 0.1123 q0.234375 0 0.46875 -0.1318359375 t0.45898 -0.35156 t0.42969 -0.48828 t0.37109 -0.53711 t0.29297 -0.51758 t0.20508 -0.41504 q0.09765625 -0.224609375 0.341796875 -0.224609375 q0.166015625 0 0.263671875 0.1171875 t0.097656 0.25391 q0 0.078125 -0.029296875 0.146484375 l-0.14648 0.32227 q-0.1171875 0.244140625 -0.3076171875 0.56640625 t-0.44434 0.67383 t-0.56152 0.64941 t-0.66406 0.48828 t-0.74707 0.19043 q-0.44921875 0 -0.72265625 -0.1904296875 t-0.4248 -0.4834 t-0.20508 -0.6543 t-0.053711 -0.70313 q0 -0.17578125 0.01953125 -0.380859375 l0.068359 -0.76172 q0.009765625 -0.166015625 0.009765625 -0.283203125 q0 -0.302734375 -0.0830078125 -0.41015625 t-0.19043 -0.10742 q-0.15625 0 -0.3564453125 0.1806640625 t-0.41992 0.47363 t-0.43945 0.65918 t-0.4248 0.72754 t-0.37109 0.68359 l-0.27344 0.54688 q-0.205078125 0.41015625 -0.4150390625 0.5517578125 t-0.37598 0.1416 q-0.302734375 0 -0.4638671875 -0.2392578125 t-0.16113 -0.58105 l0.0097656 -4.1406 q0 -1.669921875 0.0439453125 -3.110351563 t0.14648 -2.6074 t0.30762 -1.9922 t0.52246 -1.2744 t0.7959 -0.44922 q0.41015625 0 0.693359375 0.224609375 t0.45898 0.61035 t0.25391 0.89844 t0.078125 1.0791 q0 1.15234375 -0.2099609375 2.260742188 t-0.56152 2.1631 t-0.82031 2.0557 t-0.98633 1.9482 l0 1.709 z M253.48635 15.5664 q0.41015625 -0.8984375 0.7470703125 -1.752929688 t0.57617 -1.7041 t0.37598 -1.7236 t0.13672 -1.8213 q0 -0.15625 -0.0146484375 -0.498046875 t-0.087891 -0.69336 t-0.22461 -0.61523 t-0.4248 -0.26367 q-0.21484375 0 -0.37109375 0.2880859375 t-0.27344 0.78125 t-0.19531 1.1475 t-0.12695 1.3867 t-0.073242 1.5039 t-0.03418 1.499 t-0.0097656 1.3623 l0 1.1035 z M263.857415625 20.13672 q0.341796875 -0.341796875 0.693359375 -0.6982421875 t0.68359 -0.74707 t0.62012 -0.81543 t0.5127 -0.90332 q0.048828125 -0.107421875 0.13671875 -0.1611328125 t0.19531 -0.053711 q0.166015625 0 0.2685546875 0.1171875 t0.10254 0.26367 q0 0.078125 -0.029296875 0.146484375 q-0.302734375 0.634765625 -0.693359375 1.162109375 t-0.82031 1.001 t-0.86914 0.91797 t-0.83984 0.89355 q-0.0390625 0.673828125 0 1.352539063 t0.039063 1.4404 q0 0.625 -0.0390625 1.25 t-0.12695 1.1963 t-0.23926 1.0693 t-0.38574 0.86426 t-0.54688 0.57617 t-0.73242 0.20996 q-0.693359375 0 -1.064453125 -0.478515625 t-0.37109 -1.3379 q0 -0.46875 0.1025390625 -1.005859375 t0.28809 -1.1084 t0.44434 -1.1572 t0.56152 -1.1426 t0.64453 -1.0596 t0.69336 -0.91309 l0.048828 -0.97656 q0.01953125 -0.498046875 0.048828125 -0.927734375 q-0.25390625 0.44921875 -0.6298828125 0.72265625 t-0.8252 0.27344 q-0.7421875 0 -1.162109375 -0.498046875 t-0.41992 -1.3672 q0 -0.634765625 0.1220703125 -1.157226563 t0.26367 -0.89844 t0.25879 -0.57617 t0.11719 -0.19043 q0.107421875 -0.166015625 0.302734375 -0.166015625 q0.166015625 0 0.2685546875 0.1123046875 t0.10254 0.25879 q0 0.107421875 -0.05859375 0.1953125 q0.009765625 -0.009765625 -0.0927734375 0.1611328125 t-0.22461 0.49316 t-0.22461 0.77148 t-0.10254 0.98633 t0.19531 0.83984 t0.63477 0.30273 q0.556640625 0 1.005859375 -0.8251953125 t0.76172 -2.3975 q0.01953125 -0.126953125 0.1171875 -0.2099609375 t0.24414 -0.083008 t0.25391 0.10742 t0.10742 0.26367 q0 0.029296875 -0.0390625 0.3466796875 t-0.092773 0.84473 t-0.1123 1.2256 t-0.097656 1.4893 z M263.076215625 22.207 q-0.439453125 0.634765625 -0.8056640625 1.337890625 t-0.62988 1.3965 t-0.41016 1.3281 t-0.14648 1.1377 t0.16602 0.79102 t0.52734 0.28809 q0.322265625 0 0.5712890625 -0.3173828125 t0.41992 -0.90332 t0.25879 -1.4209 t0.087891 -1.8701 q0 -0.419921875 -0.0146484375 -0.849609375 t-0.024414 -0.91797 z M274.27739375 10.2246 q0 0.15625 -0.107421875 0.2490234375 t-0.26367 0.092773 l-4.9512 0 l0 0.10742 q0 0.595703125 -0.087890625 1.26953125 t-0.23926 1.3428 t-0.3418 1.3037 t-0.39063 1.1719 t-0.39551 0.93262 t-0.35156 0.59082 q0.126953125 0.44921875 0.302734375 0.8349609375 t0.39551 0.67383 t0.47363 0.4541 t0.54688 0.16602 q0.341796875 0 0.6787109375 -0.2880859375 t0.625 -0.68359 t0.50781 -0.80078 t0.31738 -0.64453 t0.3418 -0.23926 q0.166015625 0 0.2685546875 0.1171875 t0.10254 0.25391 q0 0.068359375 -0.029296875 0.13671875 l-0.13672 0.3125 q-0.1171875 0.244140625 -0.2978515625 0.56640625 t-0.41992 0.67871 t-0.53711 0.64941 t-0.63965 0.48828 t-0.72266 0.19531 q-0.673828125 0 -1.2109375 -0.439453125 t-0.91309 -1.2305 t-0.57129 -1.875 t-0.19531 -2.373 q0 -0.322265625 0.009765625 -0.7568359375 t0.039063 -0.91797 t0.087891 -0.99609 t0.15625 -1.001 l-3.5059 0 q-0.15625 0 -0.263671875 -0.0927734375 t-0.10742 -0.24902 t0.10742 -0.24902 t0.26367 -0.092773 l3.6719 0 q0.09765625 -0.3515625 0.2294921875 -0.64453125 t0.30273 -0.50781 t0.38086 -0.33691 t0.45898 -0.12207 t0.42969 0.12207 t0.30762 0.33691 t0.2002 0.50781 t0.1123 0.64453 l4.9902 0 q0.15625 0 0.263671875 0.0927734375 t0.10742 0.24902 z M266.92382375 16.3086 q0.29296875 -0.64453125 0.5322265625 -1.391601563 t0.41016 -1.5088 t0.26367 -1.4941 t0.092773 -1.3477 l-1.1523 0 q-0.13671875 0.60546875 -0.2197265625 1.499023438 t-0.083008 2.1729 q0 0.712890625 0.0390625 1.196289063 t0.11719 0.87402 z M267.83199375 9.004 q-0.087890625 0 -0.25390625 0.1904296875 t-0.33203 0.68848 l0.9375 0 q-0.048828125 -0.41015625 -0.1416015625 -0.64453125 t-0.20996 -0.23438 z M267.08009375 17.0117 l0 0.0097656 l0 -0.0097656 z M271.8066625 19.16992 q0.15625 -0.33203125 0.361328125 -0.7177734375 t0.43945 -0.79102 t0.49805 -0.80566 t0.54688 -0.74707 t0.57129 -0.49805 t0.54199 -0.15137 t0.44434 0.10254 t0.3125 0.27832 t0.18555 0.41016 t0.063477 0.50781 q0 0.224609375 -0.0439453125 0.6005859375 t-0.043945 0.78613 q0 0.234375 0.0244140625 0.4638671875 t0.087891 0.41016 t0.19043 0.29297 t0.33203 0.1123 q0.234375 0 0.46875 -0.1318359375 t0.45898 -0.35156 t0.42969 -0.48828 t0.37109 -0.53711 t0.29297 -0.51758 t0.20508 -0.41504 q0.09765625 -0.224609375 0.341796875 -0.224609375 q0.166015625 0 0.263671875 0.1171875 t0.097656 0.25391 q0 0.078125 -0.029296875 0.146484375 l-0.14648 0.32227 q-0.1171875 0.244140625 -0.3076171875 0.56640625 t-0.44434 0.67383 t-0.56152 0.64941 t-0.66406 0.48828 t-0.74707 0.19043 q-0.44921875 0 -0.72265625 -0.1904296875 t-0.4248 -0.4834 t-0.20508 -0.6543 t-0.053711 -0.70313 q0 -0.17578125 0.01953125 -0.380859375 l0.068359 -0.76172 q0.009765625 -0.166015625 0.009765625 -0.283203125 q0 -0.302734375 -0.0830078125 -0.41015625 t-0.19043 -0.10742 q-0.15625 0 -0.3564453125 0.1806640625 t-0.41992 0.47363 t-0.43945 0.65918 t-0.4248 0.72754 t-0.37109 0.68359 l-0.27344 0.54688 q-0.205078125 0.41015625 -0.4150390625 0.5517578125 t-0.37598 0.1416 q-0.302734375 0 -0.4638671875 -0.2392578125 t-0.16113 -0.58105 l0.0097656 -4.1406 q0 -1.669921875 0.0439453125 -3.110351563 t0.14648 -2.6074 t0.30762 -1.9922 t0.52246 -1.2744 t0.7959 -0.44922 q0.41015625 0 0.693359375 0.224609375 t0.45898 0.61035 t0.25391 0.89844 t0.078125 1.0791 q0 1.15234375 -0.2099609375 2.260742188 t-0.56152 2.1631 t-0.82031 2.0557 t-0.98633 1.9482 l0 1.709 z M271.8066625 15.5664 q0.41015625 -0.8984375 0.7470703125 -1.752929688 t0.57617 -1.7041 t0.37598 -1.7236 t0.13672 -1.8213 q0 -0.15625 -0.0146484375 -0.498046875 t-0.087891 -0.69336 t-0.22461 -0.61523 t-0.4248 -0.26367 q-0.21484375 0 -0.37109375 0.2880859375 t-0.27344 0.78125 t-0.19531 1.1475 t-0.12695 1.3867 t-0.073242 1.5039 t-0.03418 1.499 t-0.0097656 1.3623 l0 1.1035 z M280.800828125 19.13086 q0.146484375 -0.29296875 0.3759765625 -0.7275390625 t0.47852 -0.87402 t0.48828 -0.83008 t0.40527 -0.5957 q0.283203125 -0.341796875 0.5859375 -0.48828125 t0.55664 -0.14648 t0.43457 0.10742 t0.29785 0.28809 t0.17578 0.41992 t0.058594 0.5127 q0 0.15625 -0.009765625 0.41015625 l-0.029297 0.54688 l-0.058594 1.1914 q0.146484375 -0.29296875 0.33203125 -0.6494140625 t0.37598 -0.70801 t0.36621 -0.65918 t0.32227 -0.50293 q0.419921875 -0.576171875 0.7861328125 -0.771484375 t0.64941 -0.19531 q0.33203125 0 0.546875 0.1220703125 t0.33691 0.3125 t0.1709 0.4248 t0.048828 0.44922 q0 0.33203125 -0.048828125 0.693359375 t-0.048828 0.85938 q0 0.205078125 0.01953125 0.41015625 t0.083008 0.36133 t0.2002 0.25391 t0.38086 0.097656 t0.48828 -0.13184 t0.46875 -0.34668 t0.4248 -0.48828 t0.36621 -0.54688 t0.29297 -0.52246 t0.20508 -0.4248 q0.048828125 -0.107421875 0.13671875 -0.166015625 t0.19531 -0.058594 q0.166015625 0 0.2685546875 0.1220703125 t0.10254 0.25879 q0 0.068359375 -0.029296875 0.13671875 l-0.15625 0.32227 q-0.1171875 0.25390625 -0.3125 0.5712890625 t-0.4541 0.66895 t-0.57129 0.64941 t-0.67383 0.48828 t-0.76172 0.19043 q-0.4296875 0 -0.6982421875 -0.1513671875 t-0.42969 -0.40527 t-0.21973 -0.58594 t-0.058594 -0.69336 q0 -0.478515625 0.048828125 -0.8837890625 t0.048828 -0.63965 t-0.043945 -0.36133 t-0.10742 -0.18066 t-0.12207 -0.063477 l-0.087891 0 q-0.234375 0 -0.4931640625 0.2587890625 t-0.53223 0.68848 t-0.55664 0.97656 l-0.58594 1.1133 l-0.27344 0.51758 q-0.1171875 0.205078125 -0.2197265625 0.322265625 t-0.2002 0.16602 t-0.21484 0.048828 q-0.25390625 0 -0.3857421875 -0.17578125 t-0.13184 -0.45898 q0 -0.146484375 0.009765625 -0.390625 l0.019531 -0.53711 q0.009765625 -0.29296875 0.029296875 -0.60546875 t0.029297 -0.60547 l0.019531 -0.50781 q0.009765625 -0.224609375 0.009765625 -0.341796875 q0 -0.25390625 -0.087890625 -0.3662109375 t-0.2002 -0.1123 t-0.24414 0.078125 t-0.30762 0.30273 q-0.13671875 0.17578125 -0.3466796875 0.5126953125 t-0.44434 0.74707 t-0.46387 0.83984 t-0.39551 0.77148 q-0.205078125 0.41015625 -0.41015625 0.5615234375 t-0.40039 0.15137 q-0.283203125 0 -0.419921875 -0.1708984375 t-0.13672 -0.4541 l0.13672 -3.1152 q0.009765625 -0.244140625 -0.01953125 -0.44921875 t-0.078125 -0.24414 q-0.078125 0.01953125 -0.3076171875 0.361328125 t-0.58105 1.1914 q-0.048828125 0.107421875 -0.146484375 0.166015625 t-0.20508 0.058594 q-0.166015625 0 -0.263671875 -0.1123046875 t-0.097656 -0.25879 q0 -0.068359375 0.029296875 -0.146484375 q0.439453125 -1.044921875 0.83984375 -1.538085938 t0.78125 -0.49316 q0.224609375 0 0.3759765625 0.1025390625 t0.23926 0.26367 t0.12695 0.36621 t0.039063 0.40039 q0 0.869140625 -0.0390625 1.591796875 z"></path></g>
			</g>
		</svg>
	